{"accessors":[{"bufferView":0,"byteOffset":0,"componentType":5126,"count":6,"max":[0.0,0.0,-0.021275],"min":[-0.03,-0.004,-0.021275],"type":"VEC3"},{"bufferView":0,"byteOffset":72,"componentType":5126,"count":6,"max":[0.0,0.0,0.021275],"min":[0.0,-0.004,-0.021275],"type":"VEC3"},{"bufferView":0,"byteOffset":144,"componentType":5126,"count":6,"max":[-0.03,0.0,0.021275],"min":[-0.03,-0.004,-0.021275],"type":"VEC3"},{"bufferView":0,"byteOffset":216,"componentType":5126,"count":112,"max":[0.0,0.0,0.021275],"min":[-0.03,0.0,-0.021275],"type":"VEC3"},{"bufferView":0,"byteOffset":1560,"componentType":5126,"count":46,"max":[0.0,-0.004,-0.003],"min":[-0.015,-0.136,-0.021275],"type":"VEC3"},{"bufferView":0,"byteOffset":2112,"componentType":5126,"count":120,"max":[0.0,-0.004,0.021275],"min":[-0.03,-0.004,-0.021275],"type":"VEC3"},{"bufferView":0,"byteOffset":3552,"componentType":5126,"count":47,"max":[-0.015,-0.004,-0.003],"min":[-0.03,-0.136,-0.021275],"type":"VEC3"},{"bufferView":0,"byteOffset":4116,"componentType":5126,"count":6,"max":[0.0,0.0,0.021275],"min":[-0.03,-0.004,0.021274999999999997],"type":"VEC3"},{"bufferView":0,"byteOffset":4188,"componentType":5126,"count":37,"max":[0.0,-0.004,0.021275],"min":[-0.012,-0.136,0.0],"type":"VEC3"},{"bufferView":0,"byteOffset":4632,"componentType":5126,"count":37,"max":[0.0,-0.004,0.0],"min":[-0.012,-0.136,-0.021275],"type":"VEC3"},{"bufferView":0,"byteOffset":5076,"componentType":5126,"count":37,"max":[-0.018000000000000003,-0.004,0.0],"min":[-0.03,-0.136,-0.021275],"type":"VEC3"},{"bufferView":0,"byteOffset":5520,"componentType":5126,"count":37,"max":[-0.018000000000000003,-0.004,0.021275],"min":[-0.03,-0.136,0.0],"type":"VEC3"},{"bufferView":0,"byteOffset":5964,"componentType":5126,"count":54,"max":[-0.017500000000000006,0.0,0.01926406331114708],"min":[-0.020500000000000006,-0.002,0.016285936688852918],"type":"VEC3"},{"bufferView":0,"byteOffset":6612,"componentType":5126,"count":54,"max":[-0.0095,0.0,0.01926406331114708],"min":[-0.0125,-0.002,0.016285936688852918],"type":"VEC3"},{"bufferView":0,"byteOffset":7260,"componentType":5126,"count":54,"max":[-0.017500000000000006,0.0,-0.016285936688852918],"min":[-0.020500000000000006,-0.002,-0.01926406331114708],"type":"VEC3"},{"bufferView":0,"byteOffset":7908,"componentType":5126,"count":4,"max":[-0.025500000000000003,0.0,0.011774999999999999],"min":[-0.025500000000000003,-0.004,-0.011774999999999999],"type":"VEC3"},{"bufferView":0,"byteOffset":7956,"componentType":5126,"count":4,"max":[-0.004500000000000001,0.0,0.011774999999999999],"min":[-0.025500000000000003,-0.004,0.011774999999999999],"type":"VEC3"},{"bufferView":0,"byteOffset":8004,"componentType":5126,"count":4,"max":[-0.0045000000000000009,0.0,0.011774999999999999],"min":[-0.004500000000000001,-0.004,-0.011774999999999999],"type":"VEC3"},{"bufferView":0,"byteOffset":8052,"componentType":5126,"count":4,"max":[-0.0045000000000000009,0.0,-0.011774999999999999],"min":[-0.025500000000000003,-0.004,-0.011774999999999999],"type":"VEC3"},{"bufferView":0,"byteOffset":8100,"componentType":5126,"count":54,"max":[-0.0095,0.0,-0.016285936688852918],"min":[-0.0125,-0.002,-0.01926406331114708],"type":"VEC3"},{"bufferView":0,"byteOffset":8748,"componentType":5126,"count":41,"max":[-0.003,-0.004,-0.001253850535618727],"min":[-0.015,-0.136,-0.021275],"type":"VEC3"},{"bufferView":0,"byteOffset":9240,"componentType":5126,"count":73,"max":[-0.00768848681246346,-0.0885000225179483,-0.006161497008333314],"min":[-0.010952730659889523,-0.09149708150230603,-0.009575821679590905],"type":"VEC3"},{"bufferView":0,"byteOffset":10116,"componentType":5126,"count":72,"max":[-0.009510346487527811,-0.10850173425485139,-0.003392784270800156],"min":[-0.012772179958982113,-0.11149397954880326,-0.006806643148096585],"type":"VEC3"},{"bufferView":0,"byteOffset":10980,"componentType":5126,"count":11,"max":[-0.012,-0.136,-0.001767766952966369],"min":[-0.018000000000000003,-0.146,-0.003],"type":"VEC3"},{"bufferView":0,"byteOffset":11112,"componentType":5126,"count":44,"max":[0.0,-0.004,0.018275],"min":[-0.014176678170865952,-0.136,0.0],"type":"VEC3"},{"bufferView":0,"byteOffset":11640,"componentType":5126,"count":41,"max":[-0.003,-0.004,0.021275],"min":[-0.015,-0.136,0.001253850535618727],"type":"VEC3"},{"bufferView":0,"byteOffset":12132,"componentType":5126,"count":44,"max":[0.0,-0.004,0.0],"min":[-0.014176678170865952,-0.136,-0.018275],"type":"VEC3"},{"bufferView":0,"byteOffset":12660,"componentType":5126,"count":41,"max":[-0.015,-0.004,0.021274999999999997],"min":[-0.027,-0.136,0.001253850535618726],"type":"VEC3"},{"bufferView":0,"byteOffset":13152,"componentType":5126,"count":46,"max":[-0.015823321829134049,-0.004,0.018274999999999997],"min":[-0.03,-0.136,0.0],"type":"VEC3"},{"bufferView":0,"byteOffset":13704,"componentType":5126,"count":41,"max":[-0.015,-0.004,-0.001253850535618727],"min":[-0.027,-0.136,-0.021275],"type":"VEC3"},{"bufferView":0,"byteOffset":14196,"componentType":5126,"count":46,"max":[-0.015823321829134049,-0.004,0.0],"min":[-0.03,-0.136,-0.018275],"type":"VEC3"},{"bufferView":0,"byteOffset":14748,"componentType":5126,"count":54,"max":[-0.016000000000000005,-0.002,0.02075312662229416],"min":[-0.022000000000000007,-0.004,0.014796873377705836],"type":"VEC3"},{"bufferView":0,"byteOffset":15396,"componentType":5126,"count":54,"max":[-0.008,-0.002,0.02075312662229416],"min":[-0.014,-0.004,0.014796873377705836],"type":"VEC3"},{"bufferView":0,"byteOffset":16044,"componentType":5126,"count":54,"max":[-0.016000000000000005,-0.002,-0.014796873377705836],"min":[-0.022000000000000007,-0.004,-0.02075312662229416],"type":"VEC3"},{"bufferView":0,"byteOffset":16692,"componentType":5126,"count":54,"max":[-0.008,-0.002,-0.014796873377705836],"min":[-0.014,-0.004,-0.02075312662229416],"type":"VEC3"},{"bufferView":0,"byteOffset":17340,"componentType":5126,"count":73,"max":[-0.019047269340110485,-0.08850039807838597,-0.006161655384141326],"min":[-0.02231151318753654,-0.09149502762131583,-0.009575916865135847],"type":"VEC3"},{"bufferView":0,"byteOffset":18216,"componentType":5126,"count":75,"max":[-0.017227820041017886,-0.10850017279474787,-0.003392784270800156],"min":[-0.02048965351247219,-0.11149542003981289,-0.006807237061935589],"type":"VEC3"},{"bufferView":0,"byteOffset":19116,"componentType":5126,"count":47,"max":[-0.015,-0.004,0.021275],"min":[-0.03,-0.136,0.003],"type":"VEC3"},{"bufferView":0,"byteOffset":19680,"componentType":5126,"count":46,"max":[0.0,-0.004,0.021275],"min":[-0.015,-0.136,0.003],"type":"VEC3"},{"bufferView":0,"byteOffset":20232,"componentType":5126,"count":72,"max":[-0.009510346487527811,-0.10850173425485156,0.006806643163963505],"min":[-0.012772179958982113,-0.11149397954880326,0.003392784270800156],"type":"VEC3"},{"bufferView":0,"byteOffset":21096,"componentType":5126,"count":73,"max":[-0.00768848681246346,-0.08850002251794848,0.00957582167958971],"min":[-0.010952730659889523,-0.09149708150230603,0.006161497008333299],"type":"VEC3"},{"bufferView":0,"byteOffset":21972,"componentType":5126,"count":7,"max":[-0.012,-0.136,0.003],"min":[-0.013232233047033632,-0.146,0.0],"type":"VEC3"},{"bufferView":0,"byteOffset":22056,"componentType":5126,"count":7,"max":[-0.012,-0.136,0.0],"min":[-0.013232233047033632,-0.146,-0.003],"type":"VEC3"},{"bufferView":0,"byteOffset":22140,"componentType":5126,"count":11,"max":[-0.01676776695296637,-0.136,0.003],"min":[-0.018000000000000003,-0.146,-0.003],"type":"VEC3"},{"bufferView":0,"byteOffset":22272,"componentType":5126,"count":75,"max":[-0.017227820041017886,-0.10850017279474221,0.006807237062634686],"min":[-0.020489653512472194,-0.11149542003981306,0.0033927842708001536],"type":"VEC3"},{"bufferView":0,"byteOffset":23172,"componentType":5126,"count":73,"max":[-0.019047269340110485,-0.08850039807838625,0.009575916865142568],"min":[-0.02231151318753654,-0.09149502762131524,0.0061616553841413279],"type":"VEC3"},{"bufferView":0,"byteOffset":24048,"componentType":5126,"count":52,"max":[-0.016000000000000005,-0.002,0.02075312662229416],"min":[-0.022000000000000007,-0.002,0.014796873377705836],"type":"VEC3"},{"bufferView":0,"byteOffset":24672,"componentType":5126,"count":52,"max":[-0.008,-0.002,0.02075312662229416],"min":[-0.014,-0.002,0.014796873377705836],"type":"VEC3"},{"bufferView":0,"byteOffset":25296,"componentType":5126,"count":52,"max":[-0.016000000000000005,-0.002,-0.014796873377705836],"min":[-0.022000000000000007,-0.002,-0.02075312662229416],"type":"VEC3"},{"bufferView":0,"byteOffset":25920,"componentType":5126,"count":52,"max":[-0.008,-0.002,-0.014796873377705836],"min":[-0.014,-0.002,-0.02075312662229416],"type":"VEC3"},{"bufferView":0,"byteOffset":26544,"componentType":5126,"count":40,"max":[-0.0135,-0.1269434598795255,0.0015],"min":[-0.0165,-0.146,-0.0015],"type":"VEC3"},{"bufferView":0,"byteOffset":27024,"componentType":5126,"count":55,"max":[-0.0125,-0.146,0.0024842805247331067],"min":[-0.017484280524733107,-0.146,-0.0024842805247331067],"type":"VEC3"},{"bufferView":0,"byteOffset":27684,"componentType":5126,"count":11,"max":[-0.012,-0.136,0.003],"min":[-0.018000000000000003,-0.146,0.001767766952966369],"type":"VEC3"},{"bufferView":1,"byteOffset":0,"componentType":5126,"count":6,"type":"VEC3"},{"bufferView":1,"byteOffset":72,"componentType":5126,"count":6,"type":"VEC3"},{"bufferView":1,"byteOffset":144,"componentType":5126,"count":6,"type":"VEC3"},{"bufferView":1,"byteOffset":216,"componentType":5126,"count":112,"type":"VEC3"},{"bufferView":1,"byteOffset":1560,"componentType":5126,"count":46,"type":"VEC3"},{"bufferView":1,"byteOffset":2112,"componentType":5126,"count":120,"type":"VEC3"},{"bufferView":1,"byteOffset":3552,"componentType":5126,"count":47,"type":"VEC3"},{"bufferView":1,"byteOffset":4116,"componentType":5126,"count":6,"type":"VEC3"},{"bufferView":1,"byteOffset":4188,"componentType":5126,"count":37,"type":"VEC3"},{"bufferView":1,"byteOffset":4632,"componentType":5126,"count":37,"type":"VEC3"},{"bufferView":1,"byteOffset":5076,"componentType":5126,"count":37,"type":"VEC3"},{"bufferView":1,"byteOffset":5520,"componentType":5126,"count":37,"type":"VEC3"},{"bufferView":1,"byteOffset":5964,"componentType":5126,"count":54,"type":"VEC3"},{"bufferView":1,"byteOffset":6612,"componentType":5126,"count":54,"type":"VEC3"},{"bufferView":1,"byteOffset":7260,"componentType":5126,"count":54,"type":"VEC3"},{"bufferView":1,"byteOffset":7908,"componentType":5126,"count":4,"type":"VEC3"},{"bufferView":1,"byteOffset":7956,"componentType":5126,"count":4,"type":"VEC3"},{"bufferView":1,"byteOffset":8004,"componentType":5126,"count":4,"type":"VEC3"},{"bufferView":1,"byteOffset":8052,"componentType":5126,"count":4,"type":"VEC3"},{"bufferView":1,"byteOffset":8100,"componentType":5126,"count":54,"type":"VEC3"},{"bufferView":1,"byteOffset":8748,"componentType":5126,"count":41,"type":"VEC3"},{"bufferView":1,"byteOffset":9240,"componentType":5126,"count":73,"type":"VEC3"},{"bufferView":1,"byteOffset":10116,"componentType":5126,"count":72,"type":"VEC3"},{"bufferView":1,"byteOffset":10980,"componentType":5126,"count":11,"type":"VEC3"},{"bufferView":1,"byteOffset":11112,"componentType":5126,"count":44,"type":"VEC3"},{"bufferView":1,"byteOffset":11640,"componentType":5126,"count":41,"type":"VEC3"},{"bufferView":1,"byteOffset":12132,"componentType":5126,"count":44,"type":"VEC3"},{"bufferView":1,"byteOffset":12660,"componentType":5126,"count":41,"type":"VEC3"},{"bufferView":1,"byteOffset":13152,"componentType":5126,"count":46,"type":"VEC3"},{"bufferView":1,"byteOffset":13704,"componentType":5126,"count":41,"type":"VEC3"},{"bufferView":1,"byteOffset":14196,"componentType":5126,"count":46,"type":"VEC3"},{"bufferView":1,"byteOffset":14748,"componentType":5126,"count":54,"type":"VEC3"},{"bufferView":1,"byteOffset":15396,"componentType":5126,"count":54,"type":"VEC3"},{"bufferView":1,"byteOffset":16044,"componentType":5126,"count":54,"type":"VEC3"},{"bufferView":1,"byteOffset":16692,"componentType":5126,"count":54,"type":"VEC3"},{"bufferView":1,"byteOffset":17340,"componentType":5126,"count":73,"type":"VEC3"},{"bufferView":1,"byteOffset":18216,"componentType":5126,"count":75,"type":"VEC3"},{"bufferView":1,"byteOffset":19116,"componentType":5126,"count":47,"type":"VEC3"},{"bufferView":1,"byteOffset":19680,"componentType":5126,"count":46,"type":"VEC3"},{"bufferView":1,"byteOffset":20232,"componentType":5126,"count":72,"type":"VEC3"},{"bufferView":1,"byteOffset":21096,"componentType":5126,"count":73,"type":"VEC3"},{"bufferView":1,"byteOffset":21972,"componentType":5126,"count":7,"type":"VEC3"},{"bufferView":1,"byteOffset":22056,"componentType":5126,"count":7,"type":"VEC3"},{"bufferView":1,"byteOffset":22140,"componentType":5126,"count":11,"type":"VEC3"},{"bufferView":1,"byteOffset":22272,"componentType":5126,"count":75,"type":"VEC3"},{"bufferView":1,"byteOffset":23172,"componentType":5126,"count":73,"type":"VEC3"},{"bufferView":1,"byteOffset":24048,"componentType":5126,"count":52,"type":"VEC3"},{"bufferView":1,"byteOffset":24672,"componentType":5126,"count":52,"type":"VEC3"},{"bufferView":1,"byteOffset":25296,"componentType":5126,"count":52,"type":"VEC3"},{"bufferView":1,"byteOffset":25920,"componentType":5126,"count":52,"type":"VEC3"},{"bufferView":1,"byteOffset":26544,"componentType":5126,"count":40,"type":"VEC3"},{"bufferView":1,"byteOffset":27024,"componentType":5126,"count":55,"type":"VEC3"},{"bufferView":1,"byteOffset":27684,"componentType":5126,"count":11,"type":"VEC3"},{"bufferView":2,"byteOffset":0,"componentType":5123,"count":12,"type":"SCALAR"},{"bufferView":2,"byteOffset":24,"componentType":5123,"count":12,"type":"SCALAR"},{"bufferView":2,"byteOffset":48,"componentType":5123,"count":12,"type":"SCALAR"},{"bufferView":2,"byteOffset":72,"componentType":5123,"count":360,"type":"SCALAR"},{"bufferView":2,"byteOffset":792,"componentType":5123,"count":132,"type":"SCALAR"},{"bufferView":2,"byteOffset":1056,"componentType":5123,"count":384,"type":"SCALAR"},{"bufferView":2,"byteOffset":1824,"componentType":5123,"count":135,"type":"SCALAR"},{"bufferView":2,"byteOffset":2096,"componentType":5123,"count":12,"type":"SCALAR"},{"bufferView":2,"byteOffset":2120,"componentType":5123,"count":105,"type":"SCALAR"},{"bufferView":2,"byteOffset":2332,"componentType":5123,"count":105,"type":"SCALAR"},{"bufferView":2,"byteOffset":2544,"componentType":5123,"count":105,"type":"SCALAR"},{"bufferView":2,"byteOffset":2756,"componentType":5123,"count":105,"type":"SCALAR"},{"bufferView":2,"byteOffset":2968,"componentType":5123,"count":156,"type":"SCALAR"},{"bufferView":2,"byteOffset":3280,"componentType":5123,"count":156,"type":"SCALAR"},{"bufferView":2,"byteOffset":3592,"componentType":5123,"count":156,"type":"SCALAR"},{"bufferView":2,"byteOffset":3904,"componentType":5123,"count":6,"type":"SCALAR"},{"bufferView":2,"byteOffset":3916,"componentType":5123,"count":6,"type":"SCALAR"},{"bufferView":2,"byteOffset":3928,"componentType":5123,"count":6,"type":"SCALAR"},{"bufferView":2,"byteOffset":3940,"componentType":5123,"count":6,"type":"SCALAR"},{"bufferView":2,"byteOffset":3952,"componentType":5123,"count":156,"type":"SCALAR"},{"bufferView":2,"byteOffset":4264,"componentType":5123,"count":117,"type":"SCALAR"},{"bufferView":2,"byteOffset":4500,"componentType":5123,"count":213,"type":"SCALAR"},{"bufferView":2,"byteOffset":4928,"componentType":5123,"count":210,"type":"SCALAR"},{"bufferView":2,"byteOffset":5348,"componentType":5123,"count":27,"type":"SCALAR"},{"bufferView":2,"byteOffset":5404,"componentType":5123,"count":126,"type":"SCALAR"},{"bufferView":2,"byteOffset":5656,"componentType":5123,"count":117,"type":"SCALAR"},{"bufferView":2,"byteOffset":5892,"componentType":5123,"count":126,"type":"SCALAR"},{"bufferView":2,"byteOffset":6144,"componentType":5123,"count":117,"type":"SCALAR"},{"bufferView":2,"byteOffset":6380,"componentType":5123,"count":132,"type":"SCALAR"},{"bufferView":2,"byteOffset":6644,"componentType":5123,"count":117,"type":"SCALAR"},{"bufferView":2,"byteOffset":6880,"componentType":5123,"count":132,"type":"SCALAR"},{"bufferView":2,"byteOffset":7144,"componentType":5123,"count":156,"type":"SCALAR"},{"bufferView":2,"byteOffset":7456,"componentType":5123,"count":156,"type":"SCALAR"},{"bufferView":2,"byteOffset":7768,"componentType":5123,"count":156,"type":"SCALAR"},{"bufferView":2,"byteOffset":8080,"componentType":5123,"count":156,"type":"SCALAR"},{"bufferView":2,"byteOffset":8392,"componentType":5123,"count":213,"type":"SCALAR"},{"bufferView":2,"byteOffset":8820,"componentType":5123,"count":219,"type":"SCALAR"},{"bufferView":2,"byteOffset":9260,"componentType":5123,"count":135,"type":"SCALAR"},{"bufferView":2,"byteOffset":9532,"componentType":5123,"count":132,"type":"SCALAR"},{"bufferView":2,"byteOffset":9796,"componentType":5123,"count":210,"type":"SCALAR"},{"bufferView":2,"byteOffset":10216,"componentType":5123,"count":213,"type":"SCALAR"},{"bufferView":2,"byteOffset":10644,"componentType":5123,"count":15,"type":"SCALAR"},{"bufferView":2,"byteOffset":10676,"componentType":5123,"count":15,"type":"SCALAR"},{"bufferView":2,"byteOffset":10708,"componentType":5123,"count":27,"type":"SCALAR"},{"bufferView":2,"byteOffset":10764,"componentType":5123,"count":219,"type":"SCALAR"},{"bufferView":2,"byteOffset":11204,"componentType":5123,"count":213,"type":"SCALAR"},{"bufferView":2,"byteOffset":11632,"componentType":5123,"count":156,"type":"SCALAR"},{"bufferView":2,"byteOffset":11944,"componentType":5123,"count":156,"type":"SCALAR"},{"bufferView":2,"byteOffset":12256,"componentType":5123,"count":156,"type":"SCALAR"},{"bufferView":2,"byteOffset":12568,"componentType":5123,"count":156,"type":"SCALAR"},{"bufferView":2,"byteOffset":12880,"componentType":5123,"count":114,"type":"SCALAR"},{"bufferView":2,"byteOffset":13108,"componentType":5123,"count":165,"type":"SCALAR"},{"bufferView":2,"byteOffset":13440,"componentType":5123,"count":27,"type":"SCALAR"}],"asset":{"generator":"Open CASCADE Technology 7.6 [dev.opencascade.org]","version":"2.0"},"bufferViews":[{"buffer":0,"byteLength":27816,"byteOffset":0,"byteStride":12,"target":34962},{"buffer":0,"byteLength":27816,"byteOffset":27816,"byteStride":12,"target":34962},{"buffer":0,"byteLength":13496,"byteOffset":55632,"target":34963}],"buffers":[{"byteLength":69128,"uri":"MechaFerris-Tibia001.bin"}],"materials":[{"name":"mat_0","pbrMetallicRoughness":{"baseColorFactor":[0.6038273572921753,0.6038273572921753,0.6038273572921753,1.0]},"doubleSided":true}],"meshes":[{"name":"Body021","primitives":[{"attributes":{"NORMAL":53,"POSITION":0},"indices":106,"material":0,"mode":4},{"attributes":{"NORMAL":54,"POSITION":1},"indices":107,"material":0,"mode":4},{"attributes":{"NORMAL":55,"POSITION":2},"indices":108,"material":0,"mode":4},{"attributes":{"NORMAL":56,"POSITION":3},"indices":109,"material":0,"mode":4},{"attributes":{"NORMAL":57,"POSITION":4},"indices":110,"material":0,"mode":4},{"attributes":{"NORMAL":58,"POSITION":5},"indices":111,"material":0,"mode":4},{"attributes":{"NORMAL":59,"POSITION":6},"indices":112,"material":0,"mode":4},{"attributes":{"NORMAL":60,"POSITION":7},"indices":113,"material":0,"mode":4},{"attributes":{"NORMAL":61,"POSITION":8},"indices":114,"material":0,"mode":4},{"attributes":{"NORMAL":62,"POSITION":9},"indices":115,"material":0,"mode":4},{"attributes":{"NORMAL":63,"POSITION":10},"indices":116,"material":0,"mode":4},{"attributes":{"NORMAL":64,"POSITION":11},"indices":117,"material":0,"mode":4},{"attributes":{"NORMAL":65,"POSITION":12},"indices":118,"material":0,"mode":4},{"attributes":{"NORMAL":66,"POSITION":13},"indices":119,"material":0,"mode":4},{"attributes":{"NORMAL":67,"POSITION":14},"indices":120,"material":0,"mode":4},{"attributes":{"NORMAL":68,"POSITION":15},"indices":121,"material":0,"mode":4},{"attributes":{"NORMAL":69,"POSITION":16},"indices":122,"material":0,"mode":4},{"attributes":{"NORMAL":70,"POSITION":17},"indices":123,"material":0,"mode":4},{"attributes":{"NORMAL":71,"POSITION":18},"indices":124,"material":0,"mode":4},{"attributes":{"NORMAL":72,"POSITION":19},"indices":125,"material":0,"mode":4},{"attributes":{"NORMAL":73,"POSITION":20},"indices":126,"material":0,"mode":4},{"attributes":{"NORMAL":74,"POSITION":21},"indices":127,"material":0,"mode":4},{"attributes":{"NORMAL":75,"POSITION":22},"indices":128,"material":0,"mode":4},{"attributes":{"NORMAL":76,"POSITION":23},"indices":129,"material":0,"mode":4},{"attributes":{"NORMAL":77,"POSITION":24},"indices":130,"material":0,"mode":4},{"attributes":{"NORMAL":78,"POSITION":25},"indices":131,"material":0,"mode":4},{"attributes":{"NORMAL":79,"POSITION":26},"indices":132,"material":0,"mode":4},{"attributes":{"NORMAL":80,"POSITION":27},"indices":133,"material":0,"mode":4},{"attributes":{"NORMAL":81,"POSITION":28},"indices":134,"material":0,"mode":4},{"attributes":{"NORMAL":82,"POSITION":29},"indices":135,"material":0,"mode":4},{"attributes":{"NORMAL":83,"POSITION":30},"indices":136,"material":0,"mode":4},{"attributes":{"NORMAL":84,"POSITION":31},"indices":137,"material":0,"mode":4},{"attributes":{"NORMAL":85,"POSITION":32},"indices":138,"material":0,"mode":4},{"attributes":{"NORMAL":86,"POSITION":33},"indices":139,"material":0,"mode":4},{"attributes":{"NORMAL":87,"POSITION":34},"indices":140,"material":0,"mode":4},{"attributes":{"NORMAL":88,"POSITION":35},"indices":141,"material":0,"mode":4},{"attributes":{"NORMAL":89,"POSITION":36},"indices":142,"material":0,"mode":4},{"attributes":{"NORMAL":90,"POSITION":37},"indices":143,"material":0,"mode":4},{"attributes":{"NORMAL":91,"POSITION":38},"indices":144,"material":0,"mode":4},{"attributes":{"NORMAL":92,"POSITION":39},"indices":145,"material":0,"mode":4},{"attributes":{"NORMAL":93,"POSITION":40},"indices":146,"material":0,"mode":4},{"attributes":{"NORMAL":94,"POSITION":41},"indices":147,"material":0,"mode":4},{"attributes":{"NORMAL":95,"POSITION":42},"indices":148,"material":0,"mode":4},{"attributes":{"NORMAL":96,"POSITION":43},"indices":149,"material":0,"mode":4},{"attributes":{"NORMAL":97,"POSITION":44},"indices":150,"material":0,"mode":4},{"attributes":{"NORMAL":98,"POSITION":45},"indices":151,"material":0,"mode":4},{"attributes":{"NORMAL":99,"POSITION":46},"indices":152,"material":0,"mode":4},{"attributes":{"NORMAL":100,"POSITION":47},"indices":153,"material":0,"mode":4},{"attributes":{"NORMAL":101,"POSITION":48},"indices":154,"material":0,"mode":4},{"attributes":{"NORMAL":102,"POSITION":49},"indices":155,"material":0,"mode":4},{"attributes":{"NORMAL":103,"POSITION":50},"indices":156,"material":0,"mode":4},{"attributes":{"NORMAL":104,"POSITION":51},"indices":157,"material":0,"mode":4},{"attributes":{"NORMAL":105,"POSITION":52},"indices":158,"material":0,"mode":4}]}],"nodes":[{"children":[1],"name":"Tibia001"},{"mesh":0,"name":"Body021"}],"scene":0,"scenes":[{"nodes":[0]}]}