{"accessors":[{"bufferView":0,"byteOffset":0,"componentType":5126,"count":4,"max":[0.0,0.0,-0.022775],"min":[-0.03,-0.004,-0.022775],"type":"VEC3"},{"bufferView":0,"byteOffset":48,"componentType":5126,"count":6,"max":[0.0,0.0,-0.012275],"min":[0.0,-0.004,-0.022775],"type":"VEC3"},{"bufferView":0,"byteOffset":120,"componentType":5126,"count":8,"max":[-0.03,0.0,0.022775],"min":[-0.03,-0.004,-0.022775],"type":"VEC3"},{"bufferView":0,"byteOffset":216,"componentType":5126,"count":118,"max":[0.0,0.0,0.022775],"min":[-0.03,0.0,-0.022775],"type":"VEC3"},{"bufferView":0,"byteOffset":1632,"componentType":5126,"count":134,"max":[0.0,-0.004,0.022775],"min":[-0.03,-0.004,-0.022775],"type":"VEC3"},{"bufferView":0,"byteOffset":3240,"componentType":5126,"count":4,"max":[0.0,-0.004,1e-18],"min":[-0.01,-0.126,-0.021275],"type":"VEC3"},{"bufferView":0,"byteOffset":3288,"componentType":5126,"count":4,"max":[0.0,0.0,-0.012275],"min":[-0.004500000000000002,-0.004,-0.012275],"type":"VEC3"},{"bufferView":0,"byteOffset":3336,"componentType":5126,"count":4,"max":[0.0,0.0,0.022775],"min":[-0.03,-0.004,0.022775],"type":"VEC3"},{"bufferView":0,"byteOffset":3384,"componentType":5126,"count":4,"max":[-0.02,-0.004,0.0],"min":[-0.03,-0.126,-0.021275],"type":"VEC3"},{"bufferView":0,"byteOffset":3432,"componentType":5126,"count":4,"max":[-0.02,-0.004,0.021274999999999997],"min":[-0.03,-0.126,0.0],"type":"VEC3"},{"bufferView":0,"byteOffset":3480,"componentType":5126,"count":4,"max":[-0.004500000000000002,0.0,-0.012274999999999865],"min":[-0.013000000000000002,-0.004,-0.012275],"type":"VEC3"},{"bufferView":0,"byteOffset":3528,"componentType":5126,"count":4,"max":[-0.013000000000000002,0.0,0.012275],"min":[-0.013000000000000002,-0.004,-0.012274999999999865],"type":"VEC3"},{"bufferView":0,"byteOffset":3576,"componentType":5126,"count":4,"max":[-0.004500000000000001,0.0,0.012275],"min":[-0.013000000000000002,-0.004,0.012275],"type":"VEC3"},{"bufferView":0,"byteOffset":3624,"componentType":5126,"count":4,"max":[0.0,0.0,0.012275],"min":[-0.004500000000000001,-0.004,0.012275],"type":"VEC3"},{"bufferView":0,"byteOffset":3672,"componentType":5126,"count":6,"max":[0.0,0.0,0.022775],"min":[0.0,-0.004,0.012275],"type":"VEC3"},{"bufferView":0,"byteOffset":3744,"componentType":5126,"count":54,"max":[-0.017500000000000006,0.0,0.01926406331114708],"min":[-0.020500000000000006,-0.002,0.016285936688852918],"type":"VEC3"},{"bufferView":0,"byteOffset":4392,"componentType":5126,"count":54,"max":[-0.0095,0.0,0.01926406331114708],"min":[-0.0125,-0.002,0.016285936688852918],"type":"VEC3"},{"bufferView":0,"byteOffset":5040,"componentType":5126,"count":4,"max":[-0.025500000000000003,0.0,0.012274999999990776],"min":[-0.025500000000000003,-0.004,-0.012275],"type":"VEC3"},{"bufferView":0,"byteOffset":5088,"componentType":5126,"count":4,"max":[-0.017,0.0,0.012274999999997549],"min":[-0.025500000000000003,-0.004,0.012274999999990776],"type":"VEC3"},{"bufferView":0,"byteOffset":5136,"componentType":5126,"count":4,"max":[-0.017,0.0,0.012274999999997549],"min":[-0.017,-0.004,-0.012274999999999863],"type":"VEC3"},{"bufferView":0,"byteOffset":5184,"componentType":5126,"count":4,"max":[-0.017,0.0,-0.012274999999999863],"min":[-0.025500000000000003,-0.004,-0.012275],"type":"VEC3"},{"bufferView":0,"byteOffset":5232,"componentType":5126,"count":54,"max":[-0.017500000000000006,0.0,-0.016285936688852918],"min":[-0.020500000000000006,-0.002,-0.01926406331114708],"type":"VEC3"},{"bufferView":0,"byteOffset":5880,"componentType":5126,"count":54,"max":[-0.0095,0.0,-0.016285936688852918],"min":[-0.0125,-0.002,-0.01926406331114708],"type":"VEC3"},{"bufferView":0,"byteOffset":6528,"componentType":5126,"count":5,"max":[0.0,-0.004,0.016274999999999999],"min":[-0.015,-0.126,0.0],"type":"VEC3"},{"bufferView":0,"byteOffset":6588,"componentType":5126,"count":5,"max":[-0.005,-0.004,0.021275],"min":[-0.015000000000000015,-0.126,0.0],"type":"VEC3"},{"bufferView":0,"byteOffset":6648,"componentType":5126,"count":4,"max":[0.0,-0.004,0.021275],"min":[-0.015,-0.126,0.005],"type":"VEC3"},{"bufferView":0,"byteOffset":6696,"componentType":5126,"count":4,"max":[-0.015,-0.004,0.021274999999999997],"min":[-0.03,-0.126,0.005],"type":"VEC3"},{"bufferView":0,"byteOffset":6744,"componentType":5126,"count":5,"max":[-0.015,-0.004,0.021274999999999997],"min":[-0.025,-0.126,0.0],"type":"VEC3"},{"bufferView":0,"byteOffset":6804,"componentType":5126,"count":5,"max":[-0.015,-0.004,0.016274999999999996],"min":[-0.03,-0.126,0.0],"type":"VEC3"},{"bufferView":0,"byteOffset":6864,"componentType":5126,"count":5,"max":[-0.015,-0.004,1.9e-17],"min":[-0.03,-0.126,-0.016274999999999999],"type":"VEC3"},{"bufferView":0,"byteOffset":6924,"componentType":5126,"count":5,"max":[-0.015,-0.004,0.0],"min":[-0.025,-0.126,-0.021275],"type":"VEC3"},{"bufferView":0,"byteOffset":6984,"componentType":5126,"count":4,"max":[-0.015,-0.004,-0.004999999999999999],"min":[-0.03,-0.126,-0.021275],"type":"VEC3"},{"bufferView":0,"byteOffset":7032,"componentType":5126,"count":4,"max":[0.0,-0.004,-0.004999999999999999],"min":[-0.015,-0.126,-0.021275],"type":"VEC3"},{"bufferView":0,"byteOffset":7080,"componentType":5126,"count":5,"max":[-0.005,-0.004,0.0],"min":[-0.015000000000000015,-0.126,-0.021275],"type":"VEC3"},{"bufferView":0,"byteOffset":7140,"componentType":5126,"count":5,"max":[0.0,-0.004,1e-18],"min":[-0.015,-0.126,-0.016274999999999999],"type":"VEC3"},{"bufferView":0,"byteOffset":7200,"componentType":5126,"count":54,"max":[-0.016000000000000005,-0.002,0.02075312662229416],"min":[-0.022000000000000007,-0.004,0.014796873377705836],"type":"VEC3"},{"bufferView":0,"byteOffset":7848,"componentType":5126,"count":54,"max":[-0.008,-0.002,0.02075312662229416],"min":[-0.014,-0.004,0.014796873377705836],"type":"VEC3"},{"bufferView":0,"byteOffset":8496,"componentType":5126,"count":54,"max":[-0.016000000000000005,-0.002,-0.014796873377705836],"min":[-0.022000000000000007,-0.004,-0.02075312662229416],"type":"VEC3"},{"bufferView":0,"byteOffset":9144,"componentType":5126,"count":54,"max":[-0.008,-0.002,-0.014796873377705836],"min":[-0.014,-0.004,-0.02075312662229416],"type":"VEC3"},{"bufferView":0,"byteOffset":9792,"componentType":5126,"count":8,"max":[-0.01,-0.126,1e-18],"min":[-0.013232233047033632,-0.146,-0.004999999999999999],"type":"VEC3"},{"bufferView":0,"byteOffset":9888,"componentType":5126,"count":19,"max":[-0.01676776695296637,-0.126,0.005],"min":[-0.02,-0.146,-0.004999999999999999],"type":"VEC3"},{"bufferView":0,"byteOffset":10116,"componentType":5126,"count":4,"max":[0.0,-0.004,0.021275],"min":[-0.01,-0.126,1e-18],"type":"VEC3"},{"bufferView":0,"byteOffset":10164,"componentType":5126,"count":52,"max":[-0.016000000000000005,-0.002,0.02075312662229416],"min":[-0.022000000000000007,-0.002,0.014796873377705836],"type":"VEC3"},{"bufferView":0,"byteOffset":10788,"componentType":5126,"count":52,"max":[-0.008,-0.002,0.02075312662229416],"min":[-0.014,-0.002,0.014796873377705836],"type":"VEC3"},{"bufferView":0,"byteOffset":11412,"componentType":5126,"count":52,"max":[-0.016000000000000005,-0.002,-0.014796873377705836],"min":[-0.022000000000000007,-0.002,-0.02075312662229416],"type":"VEC3"},{"bufferView":0,"byteOffset":12036,"componentType":5126,"count":52,"max":[-0.008,-0.002,-0.014796873377705836],"min":[-0.014,-0.002,-0.02075312662229416],"type":"VEC3"},{"bufferView":0,"byteOffset":12660,"componentType":5126,"count":19,"max":[-0.01,-0.126,0.005000000000000001],"min":[-0.02,-0.146,0.001767766952966369],"type":"VEC3"},{"bufferView":0,"byteOffset":12888,"componentType":5126,"count":19,"max":[-0.01,-0.126,-0.001767766952966369],"min":[-0.02,-0.146,-0.005],"type":"VEC3"},{"bufferView":0,"byteOffset":13116,"componentType":5126,"count":9,"max":[-0.01,-0.126,0.005000000000000001],"min":[-0.013232233047033632,-0.146,0.0],"type":"VEC3"},{"bufferView":0,"byteOffset":13224,"componentType":5126,"count":55,"max":[-0.0125,-0.146,0.0024842805247331067],"min":[-0.017484280524733107,-0.146,-0.0024842805247331067],"type":"VEC3"},{"bufferView":0,"byteOffset":13884,"componentType":5126,"count":56,"max":[-0.0135,-0.126,0.0015],"min":[-0.0165,-0.146,-0.0015],"type":"VEC3"},{"bufferView":0,"byteOffset":14556,"componentType":5126,"count":9,"max":[-0.0135,-0.126,0.0015],"min":[-0.015000000000000015,-0.126,0.0],"type":"VEC3"},{"bufferView":0,"byteOffset":14664,"componentType":5126,"count":9,"max":[-0.015,-0.126,0.0015],"min":[-0.0165,-0.126,0.0],"type":"VEC3"},{"bufferView":0,"byteOffset":14772,"componentType":5126,"count":9,"max":[-0.015,-0.126,1.9e-17],"min":[-0.0165,-0.126,-0.0015],"type":"VEC3"},{"bufferView":0,"byteOffset":14880,"componentType":5126,"count":9,"max":[-0.0135,-0.126,0.0],"min":[-0.015000000000000015,-0.126,-0.0015],"type":"VEC3"},{"bufferView":1,"byteOffset":0,"componentType":5126,"count":4,"type":"VEC3"},{"bufferView":1,"byteOffset":48,"componentType":5126,"count":6,"type":"VEC3"},{"bufferView":1,"byteOffset":120,"componentType":5126,"count":8,"type":"VEC3"},{"bufferView":1,"byteOffset":216,"componentType":5126,"count":118,"type":"VEC3"},{"bufferView":1,"byteOffset":1632,"componentType":5126,"count":134,"type":"VEC3"},{"bufferView":1,"byteOffset":3240,"componentType":5126,"count":4,"type":"VEC3"},{"bufferView":1,"byteOffset":3288,"componentType":5126,"count":4,"type":"VEC3"},{"bufferView":1,"byteOffset":3336,"componentType":5126,"count":4,"type":"VEC3"},{"bufferView":1,"byteOffset":3384,"componentType":5126,"count":4,"type":"VEC3"},{"bufferView":1,"byteOffset":3432,"componentType":5126,"count":4,"type":"VEC3"},{"bufferView":1,"byteOffset":3480,"componentType":5126,"count":4,"type":"VEC3"},{"bufferView":1,"byteOffset":3528,"componentType":5126,"count":4,"type":"VEC3"},{"bufferView":1,"byteOffset":3576,"componentType":5126,"count":4,"type":"VEC3"},{"bufferView":1,"byteOffset":3624,"componentType":5126,"count":4,"type":"VEC3"},{"bufferView":1,"byteOffset":3672,"componentType":5126,"count":6,"type":"VEC3"},{"bufferView":1,"byteOffset":3744,"componentType":5126,"count":54,"type":"VEC3"},{"bufferView":1,"byteOffset":4392,"componentType":5126,"count":54,"type":"VEC3"},{"bufferView":1,"byteOffset":5040,"componentType":5126,"count":4,"type":"VEC3"},{"bufferView":1,"byteOffset":5088,"componentType":5126,"count":4,"type":"VEC3"},{"bufferView":1,"byteOffset":5136,"componentType":5126,"count":4,"type":"VEC3"},{"bufferView":1,"byteOffset":5184,"componentType":5126,"count":4,"type":"VEC3"},{"bufferView":1,"byteOffset":5232,"componentType":5126,"count":54,"type":"VEC3"},{"bufferView":1,"byteOffset":5880,"componentType":5126,"count":54,"type":"VEC3"},{"bufferView":1,"byteOffset":6528,"componentType":5126,"count":5,"type":"VEC3"},{"bufferView":1,"byteOffset":6588,"componentType":5126,"count":5,"type":"VEC3"},{"bufferView":1,"byteOffset":6648,"componentType":5126,"count":4,"type":"VEC3"},{"bufferView":1,"byteOffset":6696,"componentType":5126,"count":4,"type":"VEC3"},{"bufferView":1,"byteOffset":6744,"componentType":5126,"count":5,"type":"VEC3"},{"bufferView":1,"byteOffset":6804,"componentType":5126,"count":5,"type":"VEC3"},{"bufferView":1,"byteOffset":6864,"componentType":5126,"count":5,"type":"VEC3"},{"bufferView":1,"byteOffset":6924,"componentType":5126,"count":5,"type":"VEC3"},{"bufferView":1,"byteOffset":6984,"componentType":5126,"count":4,"type":"VEC3"},{"bufferView":1,"byteOffset":7032,"componentType":5126,"count":4,"type":"VEC3"},{"bufferView":1,"byteOffset":7080,"componentType":5126,"count":5,"type":"VEC3"},{"bufferView":1,"byteOffset":7140,"componentType":5126,"count":5,"type":"VEC3"},{"bufferView":1,"byteOffset":7200,"componentType":5126,"count":54,"type":"VEC3"},{"bufferView":1,"byteOffset":7848,"componentType":5126,"count":54,"type":"VEC3"},{"bufferView":1,"byteOffset":8496,"componentType":5126,"count":54,"type":"VEC3"},{"bufferView":1,"byteOffset":9144,"componentType":5126,"count":54,"type":"VEC3"},{"bufferView":1,"byteOffset":9792,"componentType":5126,"count":8,"type":"VEC3"},{"bufferView":1,"byteOffset":9888,"componentType":5126,"count":19,"type":"VEC3"},{"bufferView":1,"byteOffset":10116,"componentType":5126,"count":4,"type":"VEC3"},{"bufferView":1,"byteOffset":10164,"componentType":5126,"count":52,"type":"VEC3"},{"bufferView":1,"byteOffset":10788,"componentType":5126,"count":52,"type":"VEC3"},{"bufferView":1,"byteOffset":11412,"componentType":5126,"count":52,"type":"VEC3"},{"bufferView":1,"byteOffset":12036,"componentType":5126,"count":52,"type":"VEC3"},{"bufferView":1,"byteOffset":12660,"componentType":5126,"count":19,"type":"VEC3"},{"bufferView":1,"byteOffset":12888,"componentType":5126,"count":19,"type":"VEC3"},{"bufferView":1,"byteOffset":13116,"componentType":5126,"count":9,"type":"VEC3"},{"bufferView":1,"byteOffset":13224,"componentType":5126,"count":55,"type":"VEC3"},{"bufferView":1,"byteOffset":13884,"componentType":5126,"count":56,"type":"VEC3"},{"bufferView":1,"byteOffset":14556,"componentType":5126,"count":9,"type":"VEC3"},{"bufferView":1,"byteOffset":14664,"componentType":5126,"count":9,"type":"VEC3"},{"bufferView":1,"byteOffset":14772,"componentType":5126,"count":9,"type":"VEC3"},{"bufferView":1,"byteOffset":14880,"componentType":5126,"count":9,"type":"VEC3"},{"bufferView":2,"byteOffset":0,"componentType":5123,"count":6,"type":"SCALAR"},{"bufferView":2,"byteOffset":12,"componentType":5123,"count":12,"type":"SCALAR"},{"bufferView":2,"byteOffset":36,"componentType":5123,"count":18,"type":"SCALAR"},{"bufferView":2,"byteOffset":72,"componentType":5123,"count":378,"type":"SCALAR"},{"bufferView":2,"byteOffset":828,"componentType":5123,"count":426,"type":"SCALAR"},{"bufferView":2,"byteOffset":1680,"componentType":5123,"count":6,"type":"SCALAR"},{"bufferView":2,"byteOffset":1692,"componentType":5123,"count":6,"type":"SCALAR"},{"bufferView":2,"byteOffset":1704,"componentType":5123,"count":6,"type":"SCALAR"},{"bufferView":2,"byteOffset":1716,"componentType":5123,"count":6,"type":"SCALAR"},{"bufferView":2,"byteOffset":1728,"componentType":5123,"count":6,"type":"SCALAR"},{"bufferView":2,"byteOffset":1740,"componentType":5123,"count":6,"type":"SCALAR"},{"bufferView":2,"byteOffset":1752,"componentType":5123,"count":6,"type":"SCALAR"},{"bufferView":2,"byteOffset":1764,"componentType":5123,"count":6,"type":"SCALAR"},{"bufferView":2,"byteOffset":1776,"componentType":5123,"count":6,"type":"SCALAR"},{"bufferView":2,"byteOffset":1788,"componentType":5123,"count":12,"type":"SCALAR"},{"bufferView":2,"byteOffset":1812,"componentType":5123,"count":156,"type":"SCALAR"},{"bufferView":2,"byteOffset":2124,"componentType":5123,"count":156,"type":"SCALAR"},{"bufferView":2,"byteOffset":2436,"componentType":5123,"count":6,"type":"SCALAR"},{"bufferView":2,"byteOffset":2448,"componentType":5123,"count":6,"type":"SCALAR"},{"bufferView":2,"byteOffset":2460,"componentType":5123,"count":6,"type":"SCALAR"},{"bufferView":2,"byteOffset":2472,"componentType":5123,"count":6,"type":"SCALAR"},{"bufferView":2,"byteOffset":2484,"componentType":5123,"count":156,"type":"SCALAR"},{"bufferView":2,"byteOffset":2796,"componentType":5123,"count":156,"type":"SCALAR"},{"bufferView":2,"byteOffset":3108,"componentType":5123,"count":9,"type":"SCALAR"},{"bufferView":2,"byteOffset":3128,"componentType":5123,"count":9,"type":"SCALAR"},{"bufferView":2,"byteOffset":3148,"componentType":5123,"count":6,"type":"SCALAR"},{"bufferView":2,"byteOffset":3160,"componentType":5123,"count":6,"type":"SCALAR"},{"bufferView":2,"byteOffset":3172,"componentType":5123,"count":9,"type":"SCALAR"},{"bufferView":2,"byteOffset":3192,"componentType":5123,"count":9,"type":"SCALAR"},{"bufferView":2,"byteOffset":3212,"componentType":5123,"count":9,"type":"SCALAR"},{"bufferView":2,"byteOffset":3232,"componentType":5123,"count":9,"type":"SCALAR"},{"bufferView":2,"byteOffset":3252,"componentType":5123,"count":6,"type":"SCALAR"},{"bufferView":2,"byteOffset":3264,"componentType":5123,"count":6,"type":"SCALAR"},{"bufferView":2,"byteOffset":3276,"componentType":5123,"count":9,"type":"SCALAR"},{"bufferView":2,"byteOffset":3296,"componentType":5123,"count":9,"type":"SCALAR"},{"bufferView":2,"byteOffset":3316,"componentType":5123,"count":156,"type":"SCALAR"},{"bufferView":2,"byteOffset":3628,"componentType":5123,"count":156,"type":"SCALAR"},{"bufferView":2,"byteOffset":3940,"componentType":5123,"count":156,"type":"SCALAR"},{"bufferView":2,"byteOffset":4252,"componentType":5123,"count":156,"type":"SCALAR"},{"bufferView":2,"byteOffset":4564,"componentType":5123,"count":21,"type":"SCALAR"},{"bufferView":2,"byteOffset":4608,"componentType":5123,"count":75,"type":"SCALAR"},{"bufferView":2,"byteOffset":4760,"componentType":5123,"count":6,"type":"SCALAR"},{"bufferView":2,"byteOffset":4772,"componentType":5123,"count":156,"type":"SCALAR"},{"bufferView":2,"byteOffset":5084,"componentType":5123,"count":156,"type":"SCALAR"},{"bufferView":2,"byteOffset":5396,"componentType":5123,"count":156,"type":"SCALAR"},{"bufferView":2,"byteOffset":5708,"componentType":5123,"count":156,"type":"SCALAR"},{"bufferView":2,"byteOffset":6020,"componentType":5123,"count":75,"type":"SCALAR"},{"bufferView":2,"byteOffset":6172,"componentType":5123,"count":75,"type":"SCALAR"},{"bufferView":2,"byteOffset":6324,"componentType":5123,"count":27,"type":"SCALAR"},{"bufferView":2,"byteOffset":6380,"componentType":5123,"count":165,"type":"SCALAR"},{"bufferView":2,"byteOffset":6712,"componentType":5123,"count":162,"type":"SCALAR"},{"bufferView":2,"byteOffset":7036,"componentType":5123,"count":21,"type":"SCALAR"},{"bufferView":2,"byteOffset":7080,"componentType":5123,"count":21,"type":"SCALAR"},{"bufferView":2,"byteOffset":7124,"componentType":5123,"count":21,"type":"SCALAR"},{"bufferView":2,"byteOffset":7168,"componentType":5123,"count":21,"type":"SCALAR"}],"asset":{"generator":"Open CASCADE Technology 7.6 [dev.opencascade.org]","version":"2.0"},"bufferViews":[{"buffer":0,"byteLength":14988,"byteOffset":0,"byteStride":12,"target":34962},{"buffer":0,"byteLength":14988,"byteOffset":14988,"byteStride":12,"target":34962},{"buffer":0,"byteLength":7212,"byteOffset":29976,"target":34963}],"buffers":[{"byteLength":37188,"uri":"MechaFerris-Tibia001.bin"}],"materials":[{"name":"mat_0","pbrMetallicRoughness":{"baseColorFactor":[0.6038273572921753,0.6038273572921753,0.6038273572921753,1.0]},"doubleSided":true}],"meshes":[{"name":"Pocket052","primitives":[{"attributes":{"NORMAL":55,"POSITION":0},"indices":110,"material":0,"mode":4},{"attributes":{"NORMAL":56,"POSITION":1},"indices":111,"material":0,"mode":4},{"attributes":{"NORMAL":57,"POSITION":2},"indices":112,"material":0,"mode":4},{"attributes":{"NORMAL":58,"POSITION":3},"indices":113,"material":0,"mode":4},{"attributes":{"NORMAL":59,"POSITION":4},"indices":114,"material":0,"mode":4},{"attributes":{"NORMAL":60,"POSITION":5},"indices":115,"material":0,"mode":4},{"attributes":{"NORMAL":61,"POSITION":6},"indices":116,"material":0,"mode":4},{"attributes":{"NORMAL":62,"POSITION":7},"indices":117,"material":0,"mode":4},{"attributes":{"NORMAL":63,"POSITION":8},"indices":118,"material":0,"mode":4},{"attributes":{"NORMAL":64,"POSITION":9},"indices":119,"material":0,"mode":4},{"attributes":{"NORMAL":65,"POSITION":10},"indices":120,"material":0,"mode":4},{"attributes":{"NORMAL":66,"POSITION":11},"indices":121,"material":0,"mode":4},{"attributes":{"NORMAL":67,"POSITION":12},"indices":122,"material":0,"mode":4},{"attributes":{"NORMAL":68,"POSITION":13},"indices":123,"material":0,"mode":4},{"attributes":{"NORMAL":69,"POSITION":14},"indices":124,"material":0,"mode":4},{"attributes":{"NORMAL":70,"POSITION":15},"indices":125,"material":0,"mode":4},{"attributes":{"NORMAL":71,"POSITION":16},"indices":126,"material":0,"mode":4},{"attributes":{"NORMAL":72,"POSITION":17},"indices":127,"material":0,"mode":4},{"attributes":{"NORMAL":73,"POSITION":18},"indices":128,"material":0,"mode":4},{"attributes":{"NORMAL":74,"POSITION":19},"indices":129,"material":0,"mode":4},{"attributes":{"NORMAL":75,"POSITION":20},"indices":130,"material":0,"mode":4},{"attributes":{"NORMAL":76,"POSITION":21},"indices":131,"material":0,"mode":4},{"attributes":{"NORMAL":77,"POSITION":22},"indices":132,"material":0,"mode":4},{"attributes":{"NORMAL":78,"POSITION":23},"indices":133,"material":0,"mode":4},{"attributes":{"NORMAL":79,"POSITION":24},"indices":134,"material":0,"mode":4},{"attributes":{"NORMAL":80,"POSITION":25},"indices":135,"material":0,"mode":4},{"attributes":{"NORMAL":81,"POSITION":26},"indices":136,"material":0,"mode":4},{"attributes":{"NORMAL":82,"POSITION":27},"indices":137,"material":0,"mode":4},{"attributes":{"NORMAL":83,"POSITION":28},"indices":138,"material":0,"mode":4},{"attributes":{"NORMAL":84,"POSITION":29},"indices":139,"material":0,"mode":4},{"attributes":{"NORMAL":85,"POSITION":30},"indices":140,"material":0,"mode":4},{"attributes":{"NORMAL":86,"POSITION":31},"indices":141,"material":0,"mode":4},{"attributes":{"NORMAL":87,"POSITION":32},"indices":142,"material":0,"mode":4},{"attributes":{"NORMAL":88,"POSITION":33},"indices":143,"material":0,"mode":4},{"attributes":{"NORMAL":89,"POSITION":34},"indices":144,"material":0,"mode":4},{"attributes":{"NORMAL":90,"POSITION":35},"indices":145,"material":0,"mode":4},{"attributes":{"NORMAL":91,"POSITION":36},"indices":146,"material":0,"mode":4},{"attributes":{"NORMAL":92,"POSITION":37},"indices":147,"material":0,"mode":4},{"attributes":{"NORMAL":93,"POSITION":38},"indices":148,"material":0,"mode":4},{"attributes":{"NORMAL":94,"POSITION":39},"indices":149,"material":0,"mode":4},{"attributes":{"NORMAL":95,"POSITION":40},"indices":150,"material":0,"mode":4},{"attributes":{"NORMAL":96,"POSITION":41},"indices":151,"material":0,"mode":4},{"attributes":{"NORMAL":97,"POSITION":42},"indices":152,"material":0,"mode":4},{"attributes":{"NORMAL":98,"POSITION":43},"indices":153,"material":0,"mode":4},{"attributes":{"NORMAL":99,"POSITION":44},"indices":154,"material":0,"mode":4},{"attributes":{"NORMAL":100,"POSITION":45},"indices":155,"material":0,"mode":4},{"attributes":{"NORMAL":101,"POSITION":46},"indices":156,"material":0,"mode":4},{"attributes":{"NORMAL":102,"POSITION":47},"indices":157,"material":0,"mode":4},{"attributes":{"NORMAL":103,"POSITION":48},"indices":158,"material":0,"mode":4},{"attributes":{"NORMAL":104,"POSITION":49},"indices":159,"material":0,"mode":4},{"attributes":{"NORMAL":105,"POSITION":50},"indices":160,"material":0,"mode":4},{"attributes":{"NORMAL":106,"POSITION":51},"indices":161,"material":0,"mode":4},{"attributes":{"NORMAL":107,"POSITION":52},"indices":162,"material":0,"mode":4},{"attributes":{"NORMAL":108,"POSITION":53},"indices":163,"material":0,"mode":4},{"attributes":{"NORMAL":109,"POSITION":54},"indices":164,"material":0,"mode":4}]}],"nodes":[{"mesh":0,"name":"Pocket052"}],"scene":0,"scenes":[{"nodes":[0]}]}