{"accessors":[{"bufferView":0,"byteOffset":0,"componentType":5126,"count":56,"max":[-0.024999999999999996,0.004,0.00750000000000045],"min":[-0.025,0.0,-0.00749999999999955],"type":"VEC3"},{"bufferView":0,"byteOffset":672,"componentType":5126,"count":4,"max":[-0.02449481851445895,0.004,-0.00749999999999955],"min":[-0.025,0.0,-0.008374999999999775],"type":"VEC3"},{"bufferView":0,"byteOffset":720,"componentType":5126,"count":78,"max":[0.0074825157689290479,0.0,0.008375000000000225],"min":[-0.025,0.0,-0.008374999999999775],"type":"VEC3"},{"bufferView":0,"byteOffset":1656,"componentType":5126,"count":73,"max":[0.0074825157689290479,0.004,0.008375000000000225],"min":[-0.025,0.004,-0.008374999999999775],"type":"VEC3"},{"bufferView":0,"byteOffset":2532,"componentType":5126,"count":4,"max":[-0.02449481851445921,0.004,0.008375000000000225],"min":[-0.025,0.0,0.00750000000000045],"type":"VEC3"},{"bufferView":0,"byteOffset":2580,"componentType":5126,"count":86,"max":[-0.023249999999989707,0.0035690224010935065,0.0055805463636245549],"min":[-0.024999999999999996,0.0004309775989064848,0.002419453636375467],"type":"VEC3"},{"bufferView":0,"byteOffset":3612,"componentType":5126,"count":86,"max":[-0.023249999999996573,0.0035690224010933859,-0.0024194536363755659],"min":[-0.024999999999999996,0.0004309775989066018,-0.005580546363624414],"type":"VEC3"},{"bufferView":0,"byteOffset":4644,"componentType":5126,"count":4,"max":[-0.01999481851445895,0.004,-0.008374999999999775],"min":[-0.02449481851445895,0.0,-0.008374999999999775],"type":"VEC3"},{"bufferView":0,"byteOffset":4692,"componentType":5126,"count":4,"max":[-0.01999481851445921,0.004,0.008375000000000225],"min":[-0.02449481851445921,0.0,0.008375000000000225],"type":"VEC3"},{"bufferView":0,"byteOffset":4740,"componentType":5126,"count":4,"max":[-0.01948963702891608,0.004,-0.007500000000000002],"min":[-0.01999481851445895,0.0,-0.008374999999999775],"type":"VEC3"},{"bufferView":0,"byteOffset":4788,"componentType":5126,"count":4,"max":[-0.019489637028918158,0.004,0.008375000000000225],"min":[-0.01999481851445921,0.0,0.007499999999999999],"type":"VEC3"},{"bufferView":0,"byteOffset":4836,"componentType":5126,"count":4,"max":[3e-18,0.004,-0.007500000000000002],"min":[-0.01948963702891608,0.0,-0.007500000000000002],"type":"VEC3"},{"bufferView":0,"byteOffset":4884,"componentType":5126,"count":4,"max":[-1e-18,0.004,0.007500000000000002],"min":[-0.019489637028918158,0.0,0.007499999999999999],"type":"VEC3"},{"bufferView":0,"byteOffset":4932,"componentType":5126,"count":48,"max":[0.0074825157689290479,0.004,0.007500000000000002],"min":[-1e-18,0.0,-0.007500000000000002],"type":"VEC3"},{"bufferView":0,"byteOffset":5508,"componentType":5126,"count":30,"max":[-0.023249999999986269,0.004,0.006899999999999999],"min":[-0.02324999999999314,0.0,0.001100000000000001],"type":"VEC3"},{"bufferView":0,"byteOffset":5868,"componentType":5126,"count":4,"max":[-0.021,0.004,0.006899999999999999],"min":[-0.023249999999986269,0.0,0.006899999999999999],"type":"VEC3"},{"bufferView":0,"byteOffset":5916,"componentType":5126,"count":4,"max":[-0.021,0.004,0.001100000000000001],"min":[-0.02324999999999314,0.0,0.001100000000000001],"type":"VEC3"},{"bufferView":0,"byteOffset":5964,"componentType":5126,"count":30,"max":[-0.021,0.004,0.006899999999999999],"min":[-0.021,0.0,0.001100000000000001],"type":"VEC3"},{"bufferView":0,"byteOffset":6324,"componentType":5126,"count":30,"max":[-0.02324999999999314,0.004,-0.001100000000000001],"min":[-0.02325,0.0,-0.006899999999999999],"type":"VEC3"},{"bufferView":0,"byteOffset":6684,"componentType":5126,"count":4,"max":[-0.021,0.004,-0.001100000000000001],"min":[-0.02324999999999314,0.0,-0.001100000000000001],"type":"VEC3"},{"bufferView":0,"byteOffset":6732,"componentType":5126,"count":4,"max":[-0.021,0.004,-0.006899999999999999],"min":[-0.02325,0.0,-0.006899999999999999],"type":"VEC3"},{"bufferView":0,"byteOffset":6780,"componentType":5126,"count":30,"max":[-0.021,0.004,-0.001100000000000001],"min":[-0.021,0.0,-0.006899999999999999],"type":"VEC3"},{"bufferView":0,"byteOffset":7140,"componentType":5126,"count":26,"max":[0.00375,0.001,0.0037380078113729957],"min":[-0.002315167380558044,0.0,8e-17],"type":"VEC3"},{"bufferView":0,"byteOffset":7452,"componentType":5126,"count":26,"max":[0.00375,0.001,8e-17],"min":[-0.002315167380558043,0.0,-0.0037380078113729926],"type":"VEC3"},{"bufferView":0,"byteOffset":7764,"componentType":5126,"count":4,"max":[-0.002315167380558043,0.001,-0.002],"min":[-0.014649999999999998,0.0,-0.002950000000000002],"type":"VEC3"},{"bufferView":0,"byteOffset":7812,"componentType":5126,"count":26,"max":[-0.014649999999999998,0.001,0.002],"min":[-0.01650188762136201,0.0,-0.002],"type":"VEC3"},{"bufferView":0,"byteOffset":8124,"componentType":5126,"count":4,"max":[-0.002315167380558044,0.001,0.0029500000000000014],"min":[-0.014649999999999998,0.0,0.002],"type":"VEC3"},{"bufferView":0,"byteOffset":8172,"componentType":5126,"count":70,"max":[0.00375,0.004,0.0037473726160046807],"min":[-0.0037345987692023469,0.0016499999999999987,-0.0037473726160046824],"type":"VEC3"},{"bufferView":0,"byteOffset":9012,"componentType":5126,"count":105,"max":[-0.018749999999999994,0.003649275681779234,0.005659094155801354],"min":[-0.021,0.0003507243182207593,0.0023409058441986364],"type":"VEC3"},{"bufferView":0,"byteOffset":10272,"componentType":5126,"count":105,"max":[-0.018749999999999994,0.0036492756817792326,-0.002340905844198645],"min":[-0.021,0.0003507243182207576,-0.005659094155801366],"type":"VEC3"},{"bufferView":0,"byteOffset":11532,"componentType":5126,"count":26,"max":[0.00375,0.001450000000000002,0.003743296959094578],"min":[-0.002315167380558044,0.001,8e-17],"type":"VEC3"},{"bufferView":0,"byteOffset":11844,"componentType":5126,"count":26,"max":[0.00375,0.001450000000000002,8e-17],"min":[-0.002315167380558043,0.001,-0.0037432969590945814],"type":"VEC3"},{"bufferView":0,"byteOffset":12156,"componentType":5126,"count":28,"max":[-0.002315167380558043,0.001,0.0029500000000000014],"min":[-0.016649999999999999,0.001,-0.002950000000000002],"type":"VEC3"},{"bufferView":0,"byteOffset":12492,"componentType":5126,"count":25,"max":[-0.002034698994937582,0.00165,0.003149999999999999],"min":[-0.016981612213625494,0.0016499999999999987,-0.003149999999999999],"type":"VEC3"},{"bufferView":0,"byteOffset":12792,"componentType":5126,"count":26,"max":[0.00375,0.00165,8e-17],"min":[-0.0021277097420701696,0.00145,-0.0037473726160046824],"type":"VEC3"},{"bufferView":0,"byteOffset":13104,"componentType":5126,"count":26,"max":[0.00375,0.00165,0.0037473726160046807],"min":[-0.0021277097420701678,0.00145,8e-17],"type":"VEC3"},{"bufferView":0,"byteOffset":13416,"componentType":5126,"count":26,"max":[-0.018749999999999994,0.0036469974914282254,0.005659094155801354],"min":[-0.018749999999999994,0.0003530025085717663,0.0023409058441986364],"type":"VEC3"},{"bufferView":0,"byteOffset":13728,"componentType":5126,"count":26,"max":[-0.018749999999999994,0.0036469974914282254,-0.002340905844198645],"min":[-0.018749999999999994,0.0003530025085717663,-0.005659094155801366],"type":"VEC3"},{"bufferView":0,"byteOffset":14040,"componentType":5126,"count":5,"max":[-0.002034698994937582,0.00165,0.003149999999999999],"min":[-0.01501776659166049,0.001,0.001994166732228741],"type":"VEC3"},{"bufferView":0,"byteOffset":14100,"componentType":5126,"count":5,"max":[-0.002034698994937583,0.00165,-0.001994166732228741],"min":[-0.015017766591660492,0.001,-0.003149999999999999],"type":"VEC3"},{"bufferView":0,"byteOffset":14160,"componentType":5126,"count":26,"max":[-0.014802640243946819,0.00165,0.002125],"min":[-0.016981612213625494,0.001,-0.002125],"type":"VEC3"},{"bufferView":1,"byteOffset":0,"componentType":5126,"count":56,"type":"VEC3"},{"bufferView":1,"byteOffset":672,"componentType":5126,"count":4,"type":"VEC3"},{"bufferView":1,"byteOffset":720,"componentType":5126,"count":78,"type":"VEC3"},{"bufferView":1,"byteOffset":1656,"componentType":5126,"count":73,"type":"VEC3"},{"bufferView":1,"byteOffset":2532,"componentType":5126,"count":4,"type":"VEC3"},{"bufferView":1,"byteOffset":2580,"componentType":5126,"count":86,"type":"VEC3"},{"bufferView":1,"byteOffset":3612,"componentType":5126,"count":86,"type":"VEC3"},{"bufferView":1,"byteOffset":4644,"componentType":5126,"count":4,"type":"VEC3"},{"bufferView":1,"byteOffset":4692,"componentType":5126,"count":4,"type":"VEC3"},{"bufferView":1,"byteOffset":4740,"componentType":5126,"count":4,"type":"VEC3"},{"bufferView":1,"byteOffset":4788,"componentType":5126,"count":4,"type":"VEC3"},{"bufferView":1,"byteOffset":4836,"componentType":5126,"count":4,"type":"VEC3"},{"bufferView":1,"byteOffset":4884,"componentType":5126,"count":4,"type":"VEC3"},{"bufferView":1,"byteOffset":4932,"componentType":5126,"count":48,"type":"VEC3"},{"bufferView":1,"byteOffset":5508,"componentType":5126,"count":30,"type":"VEC3"},{"bufferView":1,"byteOffset":5868,"componentType":5126,"count":4,"type":"VEC3"},{"bufferView":1,"byteOffset":5916,"componentType":5126,"count":4,"type":"VEC3"},{"bufferView":1,"byteOffset":5964,"componentType":5126,"count":30,"type":"VEC3"},{"bufferView":1,"byteOffset":6324,"componentType":5126,"count":30,"type":"VEC3"},{"bufferView":1,"byteOffset":6684,"componentType":5126,"count":4,"type":"VEC3"},{"bufferView":1,"byteOffset":6732,"componentType":5126,"count":4,"type":"VEC3"},{"bufferView":1,"byteOffset":6780,"componentType":5126,"count":30,"type":"VEC3"},{"bufferView":1,"byteOffset":7140,"componentType":5126,"count":26,"type":"VEC3"},{"bufferView":1,"byteOffset":7452,"componentType":5126,"count":26,"type":"VEC3"},{"bufferView":1,"byteOffset":7764,"componentType":5126,"count":4,"type":"VEC3"},{"bufferView":1,"byteOffset":7812,"componentType":5126,"count":26,"type":"VEC3"},{"bufferView":1,"byteOffset":8124,"componentType":5126,"count":4,"type":"VEC3"},{"bufferView":1,"byteOffset":8172,"componentType":5126,"count":70,"type":"VEC3"},{"bufferView":1,"byteOffset":9012,"componentType":5126,"count":105,"type":"VEC3"},{"bufferView":1,"byteOffset":10272,"componentType":5126,"count":105,"type":"VEC3"},{"bufferView":1,"byteOffset":11532,"componentType":5126,"count":26,"type":"VEC3"},{"bufferView":1,"byteOffset":11844,"componentType":5126,"count":26,"type":"VEC3"},{"bufferView":1,"byteOffset":12156,"componentType":5126,"count":28,"type":"VEC3"},{"bufferView":1,"byteOffset":12492,"componentType":5126,"count":25,"type":"VEC3"},{"bufferView":1,"byteOffset":12792,"componentType":5126,"count":26,"type":"VEC3"},{"bufferView":1,"byteOffset":13104,"componentType":5126,"count":26,"type":"VEC3"},{"bufferView":1,"byteOffset":13416,"componentType":5126,"count":26,"type":"VEC3"},{"bufferView":1,"byteOffset":13728,"componentType":5126,"count":26,"type":"VEC3"},{"bufferView":1,"byteOffset":14040,"componentType":5126,"count":5,"type":"VEC3"},{"bufferView":1,"byteOffset":14100,"componentType":5126,"count":5,"type":"VEC3"},{"bufferView":1,"byteOffset":14160,"componentType":5126,"count":26,"type":"VEC3"},{"bufferView":2,"byteOffset":0,"componentType":5123,"count":174,"type":"SCALAR"},{"bufferView":2,"byteOffset":348,"componentType":5123,"count":6,"type":"SCALAR"},{"bufferView":2,"byteOffset":360,"componentType":5123,"count":246,"type":"SCALAR"},{"bufferView":2,"byteOffset":852,"componentType":5123,"count":231,"type":"SCALAR"},{"bufferView":2,"byteOffset":1316,"componentType":5123,"count":6,"type":"SCALAR"},{"bufferView":2,"byteOffset":1328,"componentType":5123,"count":336,"type":"SCALAR"},{"bufferView":2,"byteOffset":2000,"componentType":5123,"count":336,"type":"SCALAR"},{"bufferView":2,"byteOffset":2672,"componentType":5123,"count":6,"type":"SCALAR"},{"bufferView":2,"byteOffset":2684,"componentType":5123,"count":6,"type":"SCALAR"},{"bufferView":2,"byteOffset":2696,"componentType":5123,"count":6,"type":"SCALAR"},{"bufferView":2,"byteOffset":2708,"componentType":5123,"count":6,"type":"SCALAR"},{"bufferView":2,"byteOffset":2720,"componentType":5123,"count":6,"type":"SCALAR"},{"bufferView":2,"byteOffset":2732,"componentType":5123,"count":6,"type":"SCALAR"},{"bufferView":2,"byteOffset":2744,"componentType":5123,"count":138,"type":"SCALAR"},{"bufferView":2,"byteOffset":3020,"componentType":5123,"count":90,"type":"SCALAR"},{"bufferView":2,"byteOffset":3200,"componentType":5123,"count":6,"type":"SCALAR"},{"bufferView":2,"byteOffset":3212,"componentType":5123,"count":6,"type":"SCALAR"},{"bufferView":2,"byteOffset":3224,"componentType":5123,"count":90,"type":"SCALAR"},{"bufferView":2,"byteOffset":3404,"componentType":5123,"count":90,"type":"SCALAR"},{"bufferView":2,"byteOffset":3584,"componentType":5123,"count":6,"type":"SCALAR"},{"bufferView":2,"byteOffset":3596,"componentType":5123,"count":6,"type":"SCALAR"},{"bufferView":2,"byteOffset":3608,"componentType":5123,"count":90,"type":"SCALAR"},{"bufferView":2,"byteOffset":3788,"componentType":5123,"count":72,"type":"SCALAR"},{"bufferView":2,"byteOffset":3932,"componentType":5123,"count":72,"type":"SCALAR"},{"bufferView":2,"byteOffset":4076,"componentType":5123,"count":6,"type":"SCALAR"},{"bufferView":2,"byteOffset":4088,"componentType":5123,"count":72,"type":"SCALAR"},{"bufferView":2,"byteOffset":4232,"componentType":5123,"count":6,"type":"SCALAR"},{"bufferView":2,"byteOffset":4244,"componentType":5123,"count":204,"type":"SCALAR"},{"bufferView":2,"byteOffset":4652,"componentType":5123,"count":444,"type":"SCALAR"},{"bufferView":2,"byteOffset":5540,"componentType":5123,"count":444,"type":"SCALAR"},{"bufferView":2,"byteOffset":6428,"componentType":5123,"count":72,"type":"SCALAR"},{"bufferView":2,"byteOffset":6572,"componentType":5123,"count":72,"type":"SCALAR"},{"bufferView":2,"byteOffset":6716,"componentType":5123,"count":78,"type":"SCALAR"},{"bufferView":2,"byteOffset":6872,"componentType":5123,"count":69,"type":"SCALAR"},{"bufferView":2,"byteOffset":7012,"componentType":5123,"count":72,"type":"SCALAR"},{"bufferView":2,"byteOffset":7156,"componentType":5123,"count":72,"type":"SCALAR"},{"bufferView":2,"byteOffset":7300,"componentType":5123,"count":72,"type":"SCALAR"},{"bufferView":2,"byteOffset":7444,"componentType":5123,"count":72,"type":"SCALAR"},{"bufferView":2,"byteOffset":7588,"componentType":5123,"count":9,"type":"SCALAR"},{"bufferView":2,"byteOffset":7608,"componentType":5123,"count":9,"type":"SCALAR"},{"bufferView":2,"byteOffset":7628,"componentType":5123,"count":72,"type":"SCALAR"}],"asset":{"generator":"Open CASCADE Technology 7.6 [dev.opencascade.org]","version":"2.0"},"bufferViews":[{"buffer":0,"byteLength":14472,"byteOffset":0,"byteStride":12,"target":34962},{"buffer":0,"byteLength":14472,"byteOffset":14472,"byteStride":12,"target":34962},{"buffer":0,"byteLength":7772,"byteOffset":28944,"target":34963}],"buffers":[{"byteLength":36716,"uri":"MechaFerris-HornBracket.bin"}],"materials":[{"name":"mat_0","pbrMetallicRoughness":{"baseColorFactor":[0.02955683507025242,0.06301002204418183,0.2345506101846695,1.0]},"doubleSided":true}],"meshes":[{"name":"Body002","primitives":[{"attributes":{"NORMAL":41,"POSITION":0},"indices":82,"material":0,"mode":4},{"attributes":{"NORMAL":42,"POSITION":1},"indices":83,"material":0,"mode":4},{"attributes":{"NORMAL":43,"POSITION":2},"indices":84,"material":0,"mode":4},{"attributes":{"NORMAL":44,"POSITION":3},"indices":85,"material":0,"mode":4},{"attributes":{"NORMAL":45,"POSITION":4},"indices":86,"material":0,"mode":4},{"attributes":{"NORMAL":46,"POSITION":5},"indices":87,"material":0,"mode":4},{"attributes":{"NORMAL":47,"POSITION":6},"indices":88,"material":0,"mode":4},{"attributes":{"NORMAL":48,"POSITION":7},"indices":89,"material":0,"mode":4},{"attributes":{"NORMAL":49,"POSITION":8},"indices":90,"material":0,"mode":4},{"attributes":{"NORMAL":50,"POSITION":9},"indices":91,"material":0,"mode":4},{"attributes":{"NORMAL":51,"POSITION":10},"indices":92,"material":0,"mode":4},{"attributes":{"NORMAL":52,"POSITION":11},"indices":93,"material":0,"mode":4},{"attributes":{"NORMAL":53,"POSITION":12},"indices":94,"material":0,"mode":4},{"attributes":{"NORMAL":54,"POSITION":13},"indices":95,"material":0,"mode":4},{"attributes":{"NORMAL":55,"POSITION":14},"indices":96,"material":0,"mode":4},{"attributes":{"NORMAL":56,"POSITION":15},"indices":97,"material":0,"mode":4},{"attributes":{"NORMAL":57,"POSITION":16},"indices":98,"material":0,"mode":4},{"attributes":{"NORMAL":58,"POSITION":17},"indices":99,"material":0,"mode":4},{"attributes":{"NORMAL":59,"POSITION":18},"indices":100,"material":0,"mode":4},{"attributes":{"NORMAL":60,"POSITION":19},"indices":101,"material":0,"mode":4},{"attributes":{"NORMAL":61,"POSITION":20},"indices":102,"material":0,"mode":4},{"attributes":{"NORMAL":62,"POSITION":21},"indices":103,"material":0,"mode":4},{"attributes":{"NORMAL":63,"POSITION":22},"indices":104,"material":0,"mode":4},{"attributes":{"NORMAL":64,"POSITION":23},"indices":105,"material":0,"mode":4},{"attributes":{"NORMAL":65,"POSITION":24},"indices":106,"material":0,"mode":4},{"attributes":{"NORMAL":66,"POSITION":25},"indices":107,"material":0,"mode":4},{"attributes":{"NORMAL":67,"POSITION":26},"indices":108,"material":0,"mode":4},{"attributes":{"NORMAL":68,"POSITION":27},"indices":109,"material":0,"mode":4},{"attributes":{"NORMAL":69,"POSITION":28},"indices":110,"material":0,"mode":4},{"attributes":{"NORMAL":70,"POSITION":29},"indices":111,"material":0,"mode":4},{"attributes":{"NORMAL":71,"POSITION":30},"indices":112,"material":0,"mode":4},{"attributes":{"NORMAL":72,"POSITION":31},"indices":113,"material":0,"mode":4},{"attributes":{"NORMAL":73,"POSITION":32},"indices":114,"material":0,"mode":4},{"attributes":{"NORMAL":74,"POSITION":33},"indices":115,"material":0,"mode":4},{"attributes":{"NORMAL":75,"POSITION":34},"indices":116,"material":0,"mode":4},{"attributes":{"NORMAL":76,"POSITION":35},"indices":117,"material":0,"mode":4},{"attributes":{"NORMAL":77,"POSITION":36},"indices":118,"material":0,"mode":4},{"attributes":{"NORMAL":78,"POSITION":37},"indices":119,"material":0,"mode":4},{"attributes":{"NORMAL":79,"POSITION":38},"indices":120,"material":0,"mode":4},{"attributes":{"NORMAL":80,"POSITION":39},"indices":121,"material":0,"mode":4},{"attributes":{"NORMAL":81,"POSITION":40},"indices":122,"material":0,"mode":4}]}],"nodes":[{"children":[1,2,3],"name":"HornBracket"},{"mesh":0,"name":"Body002"},{"name":"HornBracketLCS001"},{"translation":[-0.025,0.002,0.0],"name":"HornBracketMountLCS"}],"scene":0,"scenes":[{"nodes":[0]}]}