{"accessors":[{"bufferView":0,"byteOffset":0,"componentType":5126,"count":4,"max":[-0.024494818514459079,0.004,-0.0075000000000000018],"min":[-0.025,0.0,-0.008375000000000004],"type":"VEC3"},{"bufferView":0,"byteOffset":48,"componentType":5126,"count":56,"max":[-0.024999999999999996,0.004,0.007499999999999999],"min":[-0.025,0.0,-0.0075000000000000018],"type":"VEC3"},{"bufferView":0,"byteOffset":720,"componentType":5126,"count":4,"max":[-0.019994818514459078,0.004,-0.008375000000000004],"min":[-0.024494818514459079,0.0,-0.008375000000000004],"type":"VEC3"},{"bufferView":0,"byteOffset":768,"componentType":5126,"count":77,"max":[0.007482515768929047,0.0,0.008375],"min":[-0.025,0.0,-0.008375000000000004],"type":"VEC3"},{"bufferView":0,"byteOffset":1692,"componentType":5126,"count":74,"max":[0.007482515768929047,0.004,0.008375],"min":[-0.025,0.004,-0.008375000000000004],"type":"VEC3"},{"bufferView":0,"byteOffset":2580,"componentType":5126,"count":4,"max":[-0.024494818514459079,0.004,0.008375],"min":[-0.025,0.0,0.007499999999999999],"type":"VEC3"},{"bufferView":0,"byteOffset":2628,"componentType":5126,"count":54,"max":[-0.02324999999999919,0.0035386987548519787,0.005549999999999995],"min":[-0.024999999999999996,0.0004613012451480074,0.002449999999999994],"type":"VEC3"},{"bufferView":0,"byteOffset":3276,"componentType":5126,"count":54,"max":[-0.02325,0.0035386987548519787,-0.0024500000000000066],"min":[-0.024999999999999996,0.0004613012451480074,-0.005550000000000006],"type":"VEC3"},{"bufferView":0,"byteOffset":3924,"componentType":5126,"count":4,"max":[-0.019489637028918154,0.004,-0.0075000000000000018],"min":[-0.019994818514459078,0.0,-0.008375000000000004],"type":"VEC3"},{"bufferView":0,"byteOffset":3972,"componentType":5126,"count":4,"max":[-0.019994818514459078,0.004,0.008375],"min":[-0.024494818514459079,0.0,0.008375],"type":"VEC3"},{"bufferView":0,"byteOffset":4020,"componentType":5126,"count":4,"max":[3e-18,0.004,-0.0075],"min":[-0.019489637028918154,0.0,-0.0075000000000000018],"type":"VEC3"},{"bufferView":0,"byteOffset":4068,"componentType":5126,"count":4,"max":[-0.019489637028918154,0.004,0.008375],"min":[-0.019994818514459078,0.0,0.007499999999999999],"type":"VEC3"},{"bufferView":0,"byteOffset":4116,"componentType":5126,"count":48,"max":[0.007482515768929047,0.004,0.0075000000000000018],"min":[-1e-18,0.0,-0.0075],"type":"VEC3"},{"bufferView":0,"byteOffset":4692,"componentType":5126,"count":4,"max":[-1e-18,0.004,0.0075000000000000018],"min":[-0.019489637028918154,0.0,0.007499999999999999],"type":"VEC3"},{"bufferView":0,"byteOffset":4740,"componentType":5126,"count":4,"max":[-0.021,0.004,0.001100005035233425],"min":[-0.023249999999999089,0.0,0.001099994964766398],"type":"VEC3"},{"bufferView":0,"byteOffset":4788,"componentType":5126,"count":30,"max":[-0.023249999999999089,0.004,0.006899994964766398],"min":[-0.02324999999999953,0.0,0.001099994964766398],"type":"VEC3"},{"bufferView":0,"byteOffset":5148,"componentType":5126,"count":4,"max":[-0.021,0.004,0.006899994964766398],"min":[-0.02324999999999953,0.0,0.006899994964766398],"type":"VEC3"},{"bufferView":0,"byteOffset":5196,"componentType":5126,"count":30,"max":[-0.021,0.004,0.006899994964766398],"min":[-0.021,0.0,0.001100005035233425],"type":"VEC3"},{"bufferView":0,"byteOffset":5556,"componentType":5126,"count":76,"max":[0.00475,0.0008500000000000015,0.004745720089472237],"min":[-0.004732888070577001,0.0,-0.004745720089472237],"type":"VEC3"},{"bufferView":0,"byteOffset":6468,"componentType":5126,"count":30,"max":[-0.02325,0.004,-0.001100005035233425],"min":[-0.02325,0.0,-0.006900005035233423],"type":"VEC3"},{"bufferView":0,"byteOffset":6828,"componentType":5126,"count":4,"max":[-0.021,0.004,-0.001100005035233425],"min":[-0.02325,0.0,-0.001100005035233425],"type":"VEC3"},{"bufferView":0,"byteOffset":6876,"componentType":5126,"count":30,"max":[-0.021,0.004,-0.001100005035233425],"min":[-0.021,0.0,-0.006900005035233423],"type":"VEC3"},{"bufferView":0,"byteOffset":7236,"componentType":5126,"count":4,"max":[-0.021,0.004,-0.006900005035233423],"min":[-0.02325,0.0,-0.006900005035233423],"type":"VEC3"},{"bufferView":0,"byteOffset":7284,"componentType":5126,"count":70,"max":[0.004,0.004,0.0039829367051801389],"min":[-0.004,0.0008500000000000015,-0.0039829367051801389],"type":"VEC3"},{"bufferView":0,"byteOffset":8124,"componentType":5126,"count":54,"max":[-0.018749999999999994,0.0035386987548519787,0.005549999999999995],"min":[-0.021,0.0004613012451480074,0.0024499999999999949],"type":"VEC3"},{"bufferView":0,"byteOffset":8772,"componentType":5126,"count":71,"max":[0.00475,0.0008500000000000015,0.004745720089472237],"min":[-0.004732888070577001,0.0008500000000000015,-0.004745720089472237],"type":"VEC3"},{"bufferView":0,"byteOffset":9624,"componentType":5126,"count":54,"max":[-0.018749999999999994,0.0035386987548519787,-0.002450000000000005],"min":[-0.021,0.0004613012451480074,-0.0055500000000000058],"type":"VEC3"},{"bufferView":0,"byteOffset":10272,"componentType":5126,"count":26,"max":[-0.018749999999999994,0.0035386987548519808,0.005549999999999995],"min":[-0.018749999999999994,0.00046130124514800943,0.002449999999999996],"type":"VEC3"},{"bufferView":0,"byteOffset":10584,"componentType":5126,"count":26,"max":[-0.018749999999999994,0.0035386987548519808,-0.002450000000000005],"min":[-0.018749999999999994,0.00046130124514800943,-0.0055500000000000058],"type":"VEC3"},{"bufferView":1,"byteOffset":0,"componentType":5126,"count":4,"type":"VEC3"},{"bufferView":1,"byteOffset":48,"componentType":5126,"count":56,"type":"VEC3"},{"bufferView":1,"byteOffset":720,"componentType":5126,"count":4,"type":"VEC3"},{"bufferView":1,"byteOffset":768,"componentType":5126,"count":77,"type":"VEC3"},{"bufferView":1,"byteOffset":1692,"componentType":5126,"count":74,"type":"VEC3"},{"bufferView":1,"byteOffset":2580,"componentType":5126,"count":4,"type":"VEC3"},{"bufferView":1,"byteOffset":2628,"componentType":5126,"count":54,"type":"VEC3"},{"bufferView":1,"byteOffset":3276,"componentType":5126,"count":54,"type":"VEC3"},{"bufferView":1,"byteOffset":3924,"componentType":5126,"count":4,"type":"VEC3"},{"bufferView":1,"byteOffset":3972,"componentType":5126,"count":4,"type":"VEC3"},{"bufferView":1,"byteOffset":4020,"componentType":5126,"count":4,"type":"VEC3"},{"bufferView":1,"byteOffset":4068,"componentType":5126,"count":4,"type":"VEC3"},{"bufferView":1,"byteOffset":4116,"componentType":5126,"count":48,"type":"VEC3"},{"bufferView":1,"byteOffset":4692,"componentType":5126,"count":4,"type":"VEC3"},{"bufferView":1,"byteOffset":4740,"componentType":5126,"count":4,"type":"VEC3"},{"bufferView":1,"byteOffset":4788,"componentType":5126,"count":30,"type":"VEC3"},{"bufferView":1,"byteOffset":5148,"componentType":5126,"count":4,"type":"VEC3"},{"bufferView":1,"byteOffset":5196,"componentType":5126,"count":30,"type":"VEC3"},{"bufferView":1,"byteOffset":5556,"componentType":5126,"count":76,"type":"VEC3"},{"bufferView":1,"byteOffset":6468,"componentType":5126,"count":30,"type":"VEC3"},{"bufferView":1,"byteOffset":6828,"componentType":5126,"count":4,"type":"VEC3"},{"bufferView":1,"byteOffset":6876,"componentType":5126,"count":30,"type":"VEC3"},{"bufferView":1,"byteOffset":7236,"componentType":5126,"count":4,"type":"VEC3"},{"bufferView":1,"byteOffset":7284,"componentType":5126,"count":70,"type":"VEC3"},{"bufferView":1,"byteOffset":8124,"componentType":5126,"count":54,"type":"VEC3"},{"bufferView":1,"byteOffset":8772,"componentType":5126,"count":71,"type":"VEC3"},{"bufferView":1,"byteOffset":9624,"componentType":5126,"count":54,"type":"VEC3"},{"bufferView":1,"byteOffset":10272,"componentType":5126,"count":26,"type":"VEC3"},{"bufferView":1,"byteOffset":10584,"componentType":5126,"count":26,"type":"VEC3"},{"bufferView":2,"byteOffset":0,"componentType":5123,"count":6,"type":"SCALAR"},{"bufferView":2,"byteOffset":12,"componentType":5123,"count":174,"type":"SCALAR"},{"bufferView":2,"byteOffset":360,"componentType":5123,"count":6,"type":"SCALAR"},{"bufferView":2,"byteOffset":372,"componentType":5123,"count":243,"type":"SCALAR"},{"bufferView":2,"byteOffset":860,"componentType":5123,"count":234,"type":"SCALAR"},{"bufferView":2,"byteOffset":1328,"componentType":5123,"count":6,"type":"SCALAR"},{"bufferView":2,"byteOffset":1340,"componentType":5123,"count":156,"type":"SCALAR"},{"bufferView":2,"byteOffset":1652,"componentType":5123,"count":156,"type":"SCALAR"},{"bufferView":2,"byteOffset":1964,"componentType":5123,"count":6,"type":"SCALAR"},{"bufferView":2,"byteOffset":1976,"componentType":5123,"count":6,"type":"SCALAR"},{"bufferView":2,"byteOffset":1988,"componentType":5123,"count":6,"type":"SCALAR"},{"bufferView":2,"byteOffset":2000,"componentType":5123,"count":6,"type":"SCALAR"},{"bufferView":2,"byteOffset":2012,"componentType":5123,"count":138,"type":"SCALAR"},{"bufferView":2,"byteOffset":2288,"componentType":5123,"count":6,"type":"SCALAR"},{"bufferView":2,"byteOffset":2300,"componentType":5123,"count":6,"type":"SCALAR"},{"bufferView":2,"byteOffset":2312,"componentType":5123,"count":90,"type":"SCALAR"},{"bufferView":2,"byteOffset":2492,"componentType":5123,"count":6,"type":"SCALAR"},{"bufferView":2,"byteOffset":2504,"componentType":5123,"count":90,"type":"SCALAR"},{"bufferView":2,"byteOffset":2684,"componentType":5123,"count":222,"type":"SCALAR"},{"bufferView":2,"byteOffset":3128,"componentType":5123,"count":90,"type":"SCALAR"},{"bufferView":2,"byteOffset":3308,"componentType":5123,"count":6,"type":"SCALAR"},{"bufferView":2,"byteOffset":3320,"componentType":5123,"count":90,"type":"SCALAR"},{"bufferView":2,"byteOffset":3500,"componentType":5123,"count":6,"type":"SCALAR"},{"bufferView":2,"byteOffset":3512,"componentType":5123,"count":204,"type":"SCALAR"},{"bufferView":2,"byteOffset":3920,"componentType":5123,"count":156,"type":"SCALAR"},{"bufferView":2,"byteOffset":4232,"componentType":5123,"count":213,"type":"SCALAR"},{"bufferView":2,"byteOffset":4660,"componentType":5123,"count":156,"type":"SCALAR"},{"bufferView":2,"byteOffset":4972,"componentType":5123,"count":72,"type":"SCALAR"},{"bufferView":2,"byteOffset":5116,"componentType":5123,"count":72,"type":"SCALAR"}],"asset":{"generator":"Open CASCADE Technology 7.6 [dev.opencascade.org]","version":"2.0"},"bufferViews":[{"buffer":0,"byteLength":10896,"byteOffset":0,"byteStride":12,"target":34962},{"buffer":0,"byteLength":10896,"byteOffset":10896,"byteStride":12,"target":34962},{"buffer":0,"byteLength":5260,"byteOffset":21792,"target":34963}],"buffers":[{"byteLength":27052,"uri":"MechaFerris-BearingBracket.bin"}],"materials":[{"name":"mat_0","pbrMetallicRoughness":{"baseColorFactor":[0.6038273572921753,0.24228115379810334,0.08865559101104737,1.0]},"doubleSided":true}],"meshes":[{"name":"Body","primitives":[{"attributes":{"NORMAL":29,"POSITION":0},"indices":58,"material":0,"mode":4},{"attributes":{"NORMAL":30,"POSITION":1},"indices":59,"material":0,"mode":4},{"attributes":{"NORMAL":31,"POSITION":2},"indices":60,"material":0,"mode":4},{"attributes":{"NORMAL":32,"POSITION":3},"indices":61,"material":0,"mode":4},{"attributes":{"NORMAL":33,"POSITION":4},"indices":62,"material":0,"mode":4},{"attributes":{"NORMAL":34,"POSITION":5},"indices":63,"material":0,"mode":4},{"attributes":{"NORMAL":35,"POSITION":6},"indices":64,"material":0,"mode":4},{"attributes":{"NORMAL":36,"POSITION":7},"indices":65,"material":0,"mode":4},{"attributes":{"NORMAL":37,"POSITION":8},"indices":66,"material":0,"mode":4},{"attributes":{"NORMAL":38,"POSITION":9},"indices":67,"material":0,"mode":4},{"attributes":{"NORMAL":39,"POSITION":10},"indices":68,"material":0,"mode":4},{"attributes":{"NORMAL":40,"POSITION":11},"indices":69,"material":0,"mode":4},{"attributes":{"NORMAL":41,"POSITION":12},"indices":70,"material":0,"mode":4},{"attributes":{"NORMAL":42,"POSITION":13},"indices":71,"material":0,"mode":4},{"attributes":{"NORMAL":43,"POSITION":14},"indices":72,"material":0,"mode":4},{"attributes":{"NORMAL":44,"POSITION":15},"indices":73,"material":0,"mode":4},{"attributes":{"NORMAL":45,"POSITION":16},"indices":74,"material":0,"mode":4},{"attributes":{"NORMAL":46,"POSITION":17},"indices":75,"material":0,"mode":4},{"attributes":{"NORMAL":47,"POSITION":18},"indices":76,"material":0,"mode":4},{"attributes":{"NORMAL":48,"POSITION":19},"indices":77,"material":0,"mode":4},{"attributes":{"NORMAL":49,"POSITION":20},"indices":78,"material":0,"mode":4},{"attributes":{"NORMAL":50,"POSITION":21},"indices":79,"material":0,"mode":4},{"attributes":{"NORMAL":51,"POSITION":22},"indices":80,"material":0,"mode":4},{"attributes":{"NORMAL":52,"POSITION":23},"indices":81,"material":0,"mode":4},{"attributes":{"NORMAL":53,"POSITION":24},"indices":82,"material":0,"mode":4},{"attributes":{"NORMAL":54,"POSITION":25},"indices":83,"material":0,"mode":4},{"attributes":{"NORMAL":55,"POSITION":26},"indices":84,"material":0,"mode":4},{"attributes":{"NORMAL":56,"POSITION":27},"indices":85,"material":0,"mode":4},{"attributes":{"NORMAL":57,"POSITION":28},"indices":86,"material":0,"mode":4}]}],"nodes":[{"children":[1,2,3],"name":"BearingBracket"},{"translation":[0.0,-0.0375,0.0],"mesh":0,"name":"Body"},{"translation":[0.0,-0.0335,0.0],"name":"BearingBracketLCS"},{"translation":[-0.025,-0.035500000000000007,0.0],"name":"BearingBracketMountLCS"}],"scene":0,"scenes":[{"nodes":[0]}]}