{"accessors":[{"bufferView":0,"byteOffset":0,"componentType":5126,"count":4,"max":[-0.0175,-0.02475,0.0077499999999999899],"min":[-0.0175,-0.032049999999999998,-0.007750000000000015],"type":"VEC3"},{"bufferView":0,"byteOffset":48,"componentType":5126,"count":30,"max":[0.007000000000000001,-0.032049999999999998,0.007749999999999986],"min":[-0.0175,-0.032049999999999998,-0.007750000000000015],"type":"VEC3"},{"bufferView":0,"byteOffset":408,"componentType":5126,"count":12,"max":[0.007,-0.02475,0.0077499999999999899],"min":[-0.0175,-0.02475,-0.007750000000000011],"type":"VEC3"},{"bufferView":0,"byteOffset":552,"componentType":5126,"count":4,"max":[0.007000000000000001,-0.02475,-0.007750000000000011],"min":[-0.0175,-0.032049999999999998,-0.007750000000000015],"type":"VEC3"},{"bufferView":0,"byteOffset":600,"componentType":5126,"count":4,"max":[0.007000000000000001,-0.02475,0.0077499999999999899],"min":[-0.0175,-0.032049999999999998,0.007749999999999986],"type":"VEC3"},{"bufferView":0,"byteOffset":648,"componentType":5126,"count":8,"max":[0.007000000000000001,-0.02475,0.0077499999999999899],"min":[0.007,-0.032049999999999998,-0.007750000000000015],"type":"VEC3"},{"bufferView":0,"byteOffset":744,"componentType":5126,"count":54,"max":[0.0015500000000000002,-0.031050000000000006,0.001538698754851984],"min":[-0.0015500000000000002,-0.032049999999999998,-0.0015386987548519837],"type":"VEC3"},{"bufferView":0,"byteOffset":1392,"componentType":5126,"count":4,"max":[0.007000000000000001,-0.02475,-0.003000000000000005],"min":[0.006025000000000003,-0.02875,-0.003000000000000006],"type":"VEC3"},{"bufferView":0,"byteOffset":1440,"componentType":5126,"count":4,"max":[0.006025000000000003,-0.02475,-0.003000000000000005],"min":[0.006025000000000003,-0.02875,-0.0063750000000000069],"type":"VEC3"},{"bufferView":0,"byteOffset":1488,"componentType":5126,"count":4,"max":[0.006025000000000003,-0.02475,-0.006375000000000006],"min":[-0.016524999999999999,-0.02875,-0.0063750000000000069],"type":"VEC3"},{"bufferView":0,"byteOffset":1536,"componentType":5126,"count":4,"max":[-0.016524999999999999,-0.02475,0.006374999999999994],"min":[-0.016524999999999999,-0.02875,-0.0063750000000000069],"type":"VEC3"},{"bufferView":0,"byteOffset":1584,"componentType":5126,"count":4,"max":[0.006025000000000002,-0.02475,0.006374999999999994],"min":[-0.016524999999999999,-0.02875,0.0063749999999999939],"type":"VEC3"},{"bufferView":0,"byteOffset":1632,"componentType":5126,"count":4,"max":[0.006025000000000002,-0.02475,0.006374999999999994],"min":[0.006025000000000002,-0.02875,0.002999999999999994],"type":"VEC3"},{"bufferView":0,"byteOffset":1680,"componentType":5126,"count":4,"max":[0.007000000000000001,-0.02475,0.0029999999999999955],"min":[0.006025000000000002,-0.02875,0.002999999999999994],"type":"VEC3"},{"bufferView":0,"byteOffset":1728,"componentType":5126,"count":14,"max":[0.007000000000000001,-0.02875,0.0063749999999999939],"min":[-0.016524999999999999,-0.02875,-0.0063750000000000069],"type":"VEC3"},{"bufferView":0,"byteOffset":1896,"componentType":5126,"count":32,"max":[0.003175426480542942,-0.03105,0.0027499999999999939],"min":[-0.003175426480542942,-0.031050000000000006,-0.002750000000000008],"type":"VEC3"},{"bufferView":0,"byteOffset":2280,"componentType":5126,"count":4,"max":[0.003175426480542942,-0.02875,0.002749999999999993],"min":[0.001587713240271472,-0.03105,-7e-18],"type":"VEC3"},{"bufferView":0,"byteOffset":2328,"componentType":5126,"count":4,"max":[0.003175426480542942,-0.02875,-7e-18],"min":[0.001587713240271471,-0.03105,-0.002750000000000008],"type":"VEC3"},{"bufferView":0,"byteOffset":2376,"componentType":5126,"count":4,"max":[0.001587713240271471,-0.02875,-0.002750000000000007],"min":[-0.001587713240271472,-0.03105,-0.002750000000000008],"type":"VEC3"},{"bufferView":0,"byteOffset":2424,"componentType":5126,"count":4,"max":[-0.001587713240271472,-0.02875,-6e-18],"min":[-0.003175426480542942,-0.03105,-0.002750000000000008],"type":"VEC3"},{"bufferView":0,"byteOffset":2472,"componentType":5126,"count":4,"max":[-0.00158771324027147,-0.02875,0.002749999999999995],"min":[-0.003175426480542942,-0.03105,-7e-18],"type":"VEC3"},{"bufferView":0,"byteOffset":2520,"componentType":5126,"count":4,"max":[0.001587713240271472,-0.02875,0.002749999999999995],"min":[-0.00158771324027147,-0.03105,0.002749999999999992],"type":"VEC3"},{"bufferView":1,"byteOffset":0,"componentType":5126,"count":4,"type":"VEC3"},{"bufferView":1,"byteOffset":48,"componentType":5126,"count":30,"type":"VEC3"},{"bufferView":1,"byteOffset":408,"componentType":5126,"count":12,"type":"VEC3"},{"bufferView":1,"byteOffset":552,"componentType":5126,"count":4,"type":"VEC3"},{"bufferView":1,"byteOffset":600,"componentType":5126,"count":4,"type":"VEC3"},{"bufferView":1,"byteOffset":648,"componentType":5126,"count":8,"type":"VEC3"},{"bufferView":1,"byteOffset":744,"componentType":5126,"count":54,"type":"VEC3"},{"bufferView":1,"byteOffset":1392,"componentType":5126,"count":4,"type":"VEC3"},{"bufferView":1,"byteOffset":1440,"componentType":5126,"count":4,"type":"VEC3"},{"bufferView":1,"byteOffset":1488,"componentType":5126,"count":4,"type":"VEC3"},{"bufferView":1,"byteOffset":1536,"componentType":5126,"count":4,"type":"VEC3"},{"bufferView":1,"byteOffset":1584,"componentType":5126,"count":4,"type":"VEC3"},{"bufferView":1,"byteOffset":1632,"componentType":5126,"count":4,"type":"VEC3"},{"bufferView":1,"byteOffset":1680,"componentType":5126,"count":4,"type":"VEC3"},{"bufferView":1,"byteOffset":1728,"componentType":5126,"count":14,"type":"VEC3"},{"bufferView":1,"byteOffset":1896,"componentType":5126,"count":32,"type":"VEC3"},{"bufferView":1,"byteOffset":2280,"componentType":5126,"count":4,"type":"VEC3"},{"bufferView":1,"byteOffset":2328,"componentType":5126,"count":4,"type":"VEC3"},{"bufferView":1,"byteOffset":2376,"componentType":5126,"count":4,"type":"VEC3"},{"bufferView":1,"byteOffset":2424,"componentType":5126,"count":4,"type":"VEC3"},{"bufferView":1,"byteOffset":2472,"componentType":5126,"count":4,"type":"VEC3"},{"bufferView":1,"byteOffset":2520,"componentType":5126,"count":4,"type":"VEC3"},{"bufferView":2,"byteOffset":0,"componentType":5123,"count":6,"type":"SCALAR"},{"bufferView":2,"byteOffset":12,"componentType":5123,"count":90,"type":"SCALAR"},{"bufferView":2,"byteOffset":192,"componentType":5123,"count":30,"type":"SCALAR"},{"bufferView":2,"byteOffset":252,"componentType":5123,"count":6,"type":"SCALAR"},{"bufferView":2,"byteOffset":264,"componentType":5123,"count":6,"type":"SCALAR"},{"bufferView":2,"byteOffset":276,"componentType":5123,"count":18,"type":"SCALAR"},{"bufferView":2,"byteOffset":312,"componentType":5123,"count":156,"type":"SCALAR"},{"bufferView":2,"byteOffset":624,"componentType":5123,"count":6,"type":"SCALAR"},{"bufferView":2,"byteOffset":636,"componentType":5123,"count":6,"type":"SCALAR"},{"bufferView":2,"byteOffset":648,"componentType":5123,"count":6,"type":"SCALAR"},{"bufferView":2,"byteOffset":660,"componentType":5123,"count":6,"type":"SCALAR"},{"bufferView":2,"byteOffset":672,"componentType":5123,"count":6,"type":"SCALAR"},{"bufferView":2,"byteOffset":684,"componentType":5123,"count":6,"type":"SCALAR"},{"bufferView":2,"byteOffset":696,"componentType":5123,"count":6,"type":"SCALAR"},{"bufferView":2,"byteOffset":708,"componentType":5123,"count":42,"type":"SCALAR"},{"bufferView":2,"byteOffset":792,"componentType":5123,"count":96,"type":"SCALAR"},{"bufferView":2,"byteOffset":984,"componentType":5123,"count":6,"type":"SCALAR"},{"bufferView":2,"byteOffset":996,"componentType":5123,"count":6,"type":"SCALAR"},{"bufferView":2,"byteOffset":1008,"componentType":5123,"count":6,"type":"SCALAR"},{"bufferView":2,"byteOffset":1020,"componentType":5123,"count":6,"type":"SCALAR"},{"bufferView":2,"byteOffset":1032,"componentType":5123,"count":6,"type":"SCALAR"},{"bufferView":2,"byteOffset":1044,"componentType":5123,"count":6,"type":"SCALAR"}],"asset":{"generator":"Open CASCADE Technology 7.6 [dev.opencascade.org]","version":"2.0"},"bufferViews":[{"buffer":0,"byteLength":2568,"byteOffset":0,"byteStride":12,"target":34962},{"buffer":0,"byteLength":2568,"byteOffset":2568,"byteStride":12,"target":34962},{"buffer":0,"byteLength":1056,"byteOffset":5136,"target":34963}],"buffers":[{"byteLength":6192,"uri":"MechaFerris-ServoHolder.bin"}],"materials":[{"name":"mat_0","pbrMetallicRoughness":{"baseColorFactor":[0.9559733271598816,0.07421357184648514,0.06847817450761795,1.0]},"doubleSided":true}],"meshes":[{"name":"Body001","primitives":[{"attributes":{"NORMAL":22,"POSITION":0},"indices":44,"material":0,"mode":4},{"attributes":{"NORMAL":23,"POSITION":1},"indices":45,"material":0,"mode":4},{"attributes":{"NORMAL":24,"POSITION":2},"indices":46,"material":0,"mode":4},{"attributes":{"NORMAL":25,"POSITION":3},"indices":47,"material":0,"mode":4},{"attributes":{"NORMAL":26,"POSITION":4},"indices":48,"material":0,"mode":4},{"attributes":{"NORMAL":27,"POSITION":5},"indices":49,"material":0,"mode":4},{"attributes":{"NORMAL":28,"POSITION":6},"indices":50,"material":0,"mode":4},{"attributes":{"NORMAL":29,"POSITION":7},"indices":51,"material":0,"mode":4},{"attributes":{"NORMAL":30,"POSITION":8},"indices":52,"material":0,"mode":4},{"attributes":{"NORMAL":31,"POSITION":9},"indices":53,"material":0,"mode":4},{"attributes":{"NORMAL":32,"POSITION":10},"indices":54,"material":0,"mode":4},{"attributes":{"NORMAL":33,"POSITION":11},"indices":55,"material":0,"mode":4},{"attributes":{"NORMAL":34,"POSITION":12},"indices":56,"material":0,"mode":4},{"attributes":{"NORMAL":35,"POSITION":13},"indices":57,"material":0,"mode":4},{"attributes":{"NORMAL":36,"POSITION":14},"indices":58,"material":0,"mode":4},{"attributes":{"NORMAL":37,"POSITION":15},"indices":59,"material":0,"mode":4},{"attributes":{"NORMAL":38,"POSITION":16},"indices":60,"material":0,"mode":4},{"attributes":{"NORMAL":39,"POSITION":17},"indices":61,"material":0,"mode":4},{"attributes":{"NORMAL":40,"POSITION":18},"indices":62,"material":0,"mode":4},{"attributes":{"NORMAL":41,"POSITION":19},"indices":63,"material":0,"mode":4},{"attributes":{"NORMAL":42,"POSITION":20},"indices":64,"material":0,"mode":4},{"attributes":{"NORMAL":43,"POSITION":21},"indices":65,"material":0,"mode":4}]}],"nodes":[{"children":[1,2,3],"name":"ServoHolder"},{"mesh":0,"name":"Body001"},{"translation":[0.0,-0.0285,0.0],"name":"ServoHolderTopLCS"},{"translation":[0.0,-0.0318,0.0],"name":"ServoHolderBottomLCS"}],"scene":0,"scenes":[{"nodes":[0]}]}