{"accessors":[{"bufferView":0,"byteOffset":0,"componentType":5126,"count":35,"max":[0.0,0.0016499999999999992,0.0016429613908868057],"min":[-0.00014999999999999858,-0.0016499999999999992,0.0],"type":"VEC3"},{"bufferView":0,"byteOffset":420,"componentType":5126,"count":35,"max":[0.0,0.0016499999999999992,0.0],"min":[-0.00014999999999999858,-0.0016499999999999992,-0.0016429613908868057],"type":"VEC3"},{"bufferView":0,"byteOffset":840,"componentType":5126,"count":74,"max":[0.0,0.00233,0.0023299999999999998],"min":[0.0,-0.00233,-0.0023299999999999998],"type":"VEC3"},{"bufferView":0,"byteOffset":1728,"componentType":5126,"count":34,"max":[-0.00014999999999999858,0.0015,0.0014999999999999997],"min":[-0.0038500000000000016,-0.0015,0.0],"type":"VEC3"},{"bufferView":0,"byteOffset":2136,"componentType":5126,"count":34,"max":[-0.00014999999999999858,0.0015,0.0],"min":[-0.0038500000000000016,-0.0015,-0.0014999999999999997],"type":"VEC3"},{"bufferView":0,"byteOffset":2544,"componentType":5126,"count":42,"max":[0.0,0.0023300000000000006,0.0],"min":[-0.00020000000000000286,-0.00233,-0.0023299999999999998],"type":"VEC3"},{"bufferView":0,"byteOffset":3048,"componentType":5126,"count":42,"max":[0.0,0.0023300000000000006,0.0023299999999999998],"min":[-0.00020000000000000286,-0.00233,0.0],"type":"VEC3"},{"bufferView":0,"byteOffset":3552,"componentType":5126,"count":35,"max":[-0.0038500000000000016,0.00165,0.0016429613908868076],"min":[-0.004,-0.00165,0.0],"type":"VEC3"},{"bufferView":0,"byteOffset":3972,"componentType":5126,"count":35,"max":[-0.0038500000000000016,0.00165,0.0],"min":[-0.004,-0.00165,-0.0016429613908868076],"type":"VEC3"},{"bufferView":0,"byteOffset":4392,"componentType":5126,"count":86,"max":[-0.00020000000000000286,0.0031650000000000009,0.0031576216544880566],"min":[-0.00020000000000000286,-0.003165,-0.0031576216544880566],"type":"VEC3"},{"bufferView":0,"byteOffset":5424,"componentType":5126,"count":74,"max":[-0.004,0.00233,0.0023299999999999998],"min":[-0.004,-0.00233,-0.0023299999999999998],"type":"VEC3"},{"bufferView":0,"byteOffset":6312,"componentType":5126,"count":48,"max":[0.0,0.0031650000000000009,0.0031576216544880566],"min":[-0.00020000000000000286,-0.0031650000000000004,0.0],"type":"VEC3"},{"bufferView":0,"byteOffset":6888,"componentType":5126,"count":48,"max":[0.0,0.0031650000000000009,0.0],"min":[-0.00020000000000000286,-0.0031650000000000004,-0.0031576216544880566],"type":"VEC3"},{"bufferView":0,"byteOffset":7464,"componentType":5126,"count":42,"max":[-0.0037999999999999976,0.00233,0.0023299999999999998],"min":[-0.004,-0.00233,0.0],"type":"VEC3"},{"bufferView":0,"byteOffset":7968,"componentType":5126,"count":42,"max":[-0.0037999999999999976,0.00233,0.0],"min":[-0.004,-0.00233,-0.0023299999999999998],"type":"VEC3"},{"bufferView":0,"byteOffset":8472,"componentType":5126,"count":102,"max":[0.0,0.00475,0.00475],"min":[0.0,-0.00475,-0.00475],"type":"VEC3"},{"bufferView":0,"byteOffset":9696,"componentType":5126,"count":86,"max":[-0.0037999999999999976,0.0031650000000000004,0.0031576216544880566],"min":[-0.0037999999999999976,-0.0031650000000000004,-0.0031576216544880566],"type":"VEC3"},{"bufferView":0,"byteOffset":10728,"componentType":5126,"count":58,"max":[0.0,0.00475,0.00475],"min":[-0.0008500000000000015,-0.00475,-1e-18],"type":"VEC3"},{"bufferView":0,"byteOffset":11424,"componentType":5126,"count":58,"max":[0.0,0.00475,0.0],"min":[-0.0008500000000000015,-0.00475,-0.00475],"type":"VEC3"},{"bufferView":0,"byteOffset":12120,"componentType":5126,"count":48,"max":[-0.0037999999999999976,0.0031650000000000004,0.0],"min":[-0.004,-0.0031650000000000004,-0.0031576216544880566],"type":"VEC3"},{"bufferView":0,"byteOffset":12696,"componentType":5126,"count":48,"max":[-0.0037999999999999976,0.0031650000000000004,0.0031576216544880566],"min":[-0.004,-0.0031650000000000004,0.0],"type":"VEC3"},{"bufferView":0,"byteOffset":13272,"componentType":5126,"count":108,"max":[-0.0008500000000000015,0.004749999999999999,0.004749999999999999],"min":[-0.0008500000000000015,-0.004749999999999999,-0.004749999999999999],"type":"VEC3"},{"bufferView":0,"byteOffset":14568,"componentType":5126,"count":96,"max":[-0.004,0.003850000000000004,0.0038424029044488497],"min":[-0.004,-0.003850000000000004,-0.003842402904448849],"type":"VEC3"},{"bufferView":0,"byteOffset":15720,"componentType":5126,"count":378,"max":[-0.0008301458225180412,0.004019999999999999,0.0],"min":[-0.0008500000000000015,-0.004019999999999999,-0.00402],"type":"VEC3"},{"bufferView":0,"byteOffset":20256,"componentType":5126,"count":378,"max":[-0.0008301458225180412,0.004019999999999999,0.00402],"min":[-0.0008500000000000015,-0.004019999999999999,-4.9233026036182259e-19],"type":"VEC3"},{"bufferView":0,"byteOffset":24792,"componentType":5126,"count":53,"max":[-0.0038500000000000016,0.004,0.004],"min":[-0.004,-0.003999999999999999,0.0],"type":"VEC3"},{"bufferView":0,"byteOffset":25428,"componentType":5126,"count":53,"max":[-0.0038500000000000016,0.004,0.0],"min":[-0.004,-0.003999999999999999,-0.004],"type":"VEC3"},{"bufferView":0,"byteOffset":26064,"componentType":5126,"count":216,"max":[-0.0008500000000000015,0.004,0.0],"min":[-0.0008699999999999975,-0.003999999999999999,-0.004],"type":"VEC3"},{"bufferView":0,"byteOffset":28656,"componentType":5126,"count":216,"max":[-0.0008500000000000015,0.004,0.004],"min":[-0.0008699999999999975,-0.003999999999999999,-4.8946594975850489e-19],"type":"VEC3"},{"bufferView":0,"byteOffset":31248,"componentType":5126,"count":54,"max":[-0.0008699999999999975,0.004,0.004],"min":[-0.003850000000000009,-0.003999999999999999,0.0],"type":"VEC3"},{"bufferView":0,"byteOffset":31896,"componentType":5126,"count":54,"max":[-0.0008699999999999975,0.004,0.0],"min":[-0.003850000000000009,-0.003999999999999999,-0.004],"type":"VEC3"},{"bufferView":1,"byteOffset":0,"componentType":5126,"count":35,"type":"VEC3"},{"bufferView":1,"byteOffset":420,"componentType":5126,"count":35,"type":"VEC3"},{"bufferView":1,"byteOffset":840,"componentType":5126,"count":74,"type":"VEC3"},{"bufferView":1,"byteOffset":1728,"componentType":5126,"count":34,"type":"VEC3"},{"bufferView":1,"byteOffset":2136,"componentType":5126,"count":34,"type":"VEC3"},{"bufferView":1,"byteOffset":2544,"componentType":5126,"count":42,"type":"VEC3"},{"bufferView":1,"byteOffset":3048,"componentType":5126,"count":42,"type":"VEC3"},{"bufferView":1,"byteOffset":3552,"componentType":5126,"count":35,"type":"VEC3"},{"bufferView":1,"byteOffset":3972,"componentType":5126,"count":35,"type":"VEC3"},{"bufferView":1,"byteOffset":4392,"componentType":5126,"count":86,"type":"VEC3"},{"bufferView":1,"byteOffset":5424,"componentType":5126,"count":74,"type":"VEC3"},{"bufferView":1,"byteOffset":6312,"componentType":5126,"count":48,"type":"VEC3"},{"bufferView":1,"byteOffset":6888,"componentType":5126,"count":48,"type":"VEC3"},{"bufferView":1,"byteOffset":7464,"componentType":5126,"count":42,"type":"VEC3"},{"bufferView":1,"byteOffset":7968,"componentType":5126,"count":42,"type":"VEC3"},{"bufferView":1,"byteOffset":8472,"componentType":5126,"count":102,"type":"VEC3"},{"bufferView":1,"byteOffset":9696,"componentType":5126,"count":86,"type":"VEC3"},{"bufferView":1,"byteOffset":10728,"componentType":5126,"count":58,"type":"VEC3"},{"bufferView":1,"byteOffset":11424,"componentType":5126,"count":58,"type":"VEC3"},{"bufferView":1,"byteOffset":12120,"componentType":5126,"count":48,"type":"VEC3"},{"bufferView":1,"byteOffset":12696,"componentType":5126,"count":48,"type":"VEC3"},{"bufferView":1,"byteOffset":13272,"componentType":5126,"count":108,"type":"VEC3"},{"bufferView":1,"byteOffset":14568,"componentType":5126,"count":96,"type":"VEC3"},{"bufferView":1,"byteOffset":15720,"componentType":5126,"count":378,"type":"VEC3"},{"bufferView":1,"byteOffset":20256,"componentType":5126,"count":378,"type":"VEC3"},{"bufferView":1,"byteOffset":24792,"componentType":5126,"count":53,"type":"VEC3"},{"bufferView":1,"byteOffset":25428,"componentType":5126,"count":53,"type":"VEC3"},{"bufferView":1,"byteOffset":26064,"componentType":5126,"count":216,"type":"VEC3"},{"bufferView":1,"byteOffset":28656,"componentType":5126,"count":216,"type":"VEC3"},{"bufferView":1,"byteOffset":31248,"componentType":5126,"count":54,"type":"VEC3"},{"bufferView":1,"byteOffset":31896,"componentType":5126,"count":54,"type":"VEC3"},{"bufferView":2,"byteOffset":0,"componentType":5123,"count":99,"type":"SCALAR"},{"bufferView":2,"byteOffset":200,"componentType":5123,"count":99,"type":"SCALAR"},{"bufferView":2,"byteOffset":400,"componentType":5123,"count":222,"type":"SCALAR"},{"bufferView":2,"byteOffset":844,"componentType":5123,"count":96,"type":"SCALAR"},{"bufferView":2,"byteOffset":1036,"componentType":5123,"count":96,"type":"SCALAR"},{"bufferView":2,"byteOffset":1228,"componentType":5123,"count":120,"type":"SCALAR"},{"bufferView":2,"byteOffset":1468,"componentType":5123,"count":120,"type":"SCALAR"},{"bufferView":2,"byteOffset":1708,"componentType":5123,"count":99,"type":"SCALAR"},{"bufferView":2,"byteOffset":1908,"componentType":5123,"count":99,"type":"SCALAR"},{"bufferView":2,"byteOffset":2108,"componentType":5123,"count":258,"type":"SCALAR"},{"bufferView":2,"byteOffset":2624,"componentType":5123,"count":222,"type":"SCALAR"},{"bufferView":2,"byteOffset":3068,"componentType":5123,"count":138,"type":"SCALAR"},{"bufferView":2,"byteOffset":3344,"componentType":5123,"count":138,"type":"SCALAR"},{"bufferView":2,"byteOffset":3620,"componentType":5123,"count":120,"type":"SCALAR"},{"bufferView":2,"byteOffset":3860,"componentType":5123,"count":120,"type":"SCALAR"},{"bufferView":2,"byteOffset":4100,"componentType":5123,"count":306,"type":"SCALAR"},{"bufferView":2,"byteOffset":4712,"componentType":5123,"count":258,"type":"SCALAR"},{"bufferView":2,"byteOffset":5228,"componentType":5123,"count":168,"type":"SCALAR"},{"bufferView":2,"byteOffset":5564,"componentType":5123,"count":168,"type":"SCALAR"},{"bufferView":2,"byteOffset":5900,"componentType":5123,"count":138,"type":"SCALAR"},{"bufferView":2,"byteOffset":6176,"componentType":5123,"count":138,"type":"SCALAR"},{"bufferView":2,"byteOffset":6452,"componentType":5123,"count":324,"type":"SCALAR"},{"bufferView":2,"byteOffset":7100,"componentType":5123,"count":288,"type":"SCALAR"},{"bufferView":2,"byteOffset":7676,"componentType":5123,"count":2028,"type":"SCALAR"},{"bufferView":2,"byteOffset":11732,"componentType":5123,"count":2028,"type":"SCALAR"},{"bufferView":2,"byteOffset":15788,"componentType":5123,"count":153,"type":"SCALAR"},{"bufferView":2,"byteOffset":16096,"componentType":5123,"count":153,"type":"SCALAR"},{"bufferView":2,"byteOffset":16404,"componentType":5123,"count":1092,"type":"SCALAR"},{"bufferView":2,"byteOffset":18588,"componentType":5123,"count":1092,"type":"SCALAR"},{"bufferView":2,"byteOffset":20772,"componentType":5123,"count":156,"type":"SCALAR"},{"bufferView":2,"byteOffset":21084,"componentType":5123,"count":156,"type":"SCALAR"}],"asset":{"generator":"Open CASCADE Technology 7.6 [dev.opencascade.org]","version":"2.0"},"bufferViews":[{"buffer":0,"byteLength":32544,"byteOffset":0,"byteStride":12,"target":34962},{"buffer":0,"byteLength":32544,"byteOffset":32544,"byteStride":12,"target":34962},{"buffer":0,"byteLength":21396,"byteOffset":65088,"target":34963}],"buffers":[{"byteLength":86484,"uri":"MechaFerris-FlangedBearing.bin"}],"materials":[{"name":"mat_0","pbrMetallicRoughness":{"baseColorFactor":[0.1119324341416359,0.17144110798835755,0.7681511640548706,1.0]},"doubleSided":true}],"meshes":[{"name":"BB-03","primitives":[{"attributes":{"NORMAL":31,"POSITION":0},"indices":62,"material":0,"mode":4},{"attributes":{"NORMAL":32,"POSITION":1},"indices":63,"material":0,"mode":4},{"attributes":{"NORMAL":33,"POSITION":2},"indices":64,"material":0,"mode":4},{"attributes":{"NORMAL":34,"POSITION":3},"indices":65,"material":0,"mode":4},{"attributes":{"NORMAL":35,"POSITION":4},"indices":66,"material":0,"mode":4},{"attributes":{"NORMAL":36,"POSITION":5},"indices":67,"material":0,"mode":4},{"attributes":{"NORMAL":37,"POSITION":6},"indices":68,"material":0,"mode":4},{"attributes":{"NORMAL":38,"POSITION":7},"indices":69,"material":0,"mode":4},{"attributes":{"NORMAL":39,"POSITION":8},"indices":70,"material":0,"mode":4},{"attributes":{"NORMAL":40,"POSITION":9},"indices":71,"material":0,"mode":4},{"attributes":{"NORMAL":41,"POSITION":10},"indices":72,"material":0,"mode":4},{"attributes":{"NORMAL":42,"POSITION":11},"indices":73,"material":0,"mode":4},{"attributes":{"NORMAL":43,"POSITION":12},"indices":74,"material":0,"mode":4},{"attributes":{"NORMAL":44,"POSITION":13},"indices":75,"material":0,"mode":4},{"attributes":{"NORMAL":45,"POSITION":14},"indices":76,"material":0,"mode":4},{"attributes":{"NORMAL":46,"POSITION":15},"indices":77,"material":0,"mode":4},{"attributes":{"NORMAL":47,"POSITION":16},"indices":78,"material":0,"mode":4},{"attributes":{"NORMAL":48,"POSITION":17},"indices":79,"material":0,"mode":4},{"attributes":{"NORMAL":49,"POSITION":18},"indices":80,"material":0,"mode":4},{"attributes":{"NORMAL":50,"POSITION":19},"indices":81,"material":0,"mode":4},{"attributes":{"NORMAL":51,"POSITION":20},"indices":82,"material":0,"mode":4},{"attributes":{"NORMAL":52,"POSITION":21},"indices":83,"material":0,"mode":4},{"attributes":{"NORMAL":53,"POSITION":22},"indices":84,"material":0,"mode":4},{"attributes":{"NORMAL":54,"POSITION":23},"indices":85,"material":0,"mode":4},{"attributes":{"NORMAL":55,"POSITION":24},"indices":86,"material":0,"mode":4},{"attributes":{"NORMAL":56,"POSITION":25},"indices":87,"material":0,"mode":4},{"attributes":{"NORMAL":57,"POSITION":26},"indices":88,"material":0,"mode":4},{"attributes":{"NORMAL":58,"POSITION":27},"indices":89,"material":0,"mode":4},{"attributes":{"NORMAL":59,"POSITION":28},"indices":90,"material":0,"mode":4},{"attributes":{"NORMAL":60,"POSITION":29},"indices":91,"material":0,"mode":4},{"attributes":{"NORMAL":61,"POSITION":30},"indices":92,"material":0,"mode":4}]}],"nodes":[{"children":[1],"name":"FlangedBearing"},{"rotation":[0.0,0.0,-0.7071067811865475,0.7071067811865475],"translation":[-2e-18,-0.03705,0.0],"mesh":0,"name":"BB-03"}],"scene":0,"scenes":[{"nodes":[0]}]}