{"accessors":[{"bufferView":0,"byteOffset":0,"componentType":5126,"count":78,"max":[0.022219512205325369,0.004,0.0221436213059997],"min":[-0.022219512205325369,0.0,-0.022143621305999698],"type":"VEC3"},{"bufferView":0,"byteOffset":936,"componentType":5126,"count":282,"max":[0.022219512205325369,0.0,0.0221436213059997],"min":[-0.022219512205325369,0.0,-0.022143621305999698],"type":"VEC3"},{"bufferView":0,"byteOffset":4320,"componentType":5126,"count":282,"max":[0.022219512205325369,0.004,0.0221436213059997],"min":[-0.022219512205325369,0.004,-0.022143621305999698],"type":"VEC3"},{"bufferView":0,"byteOffset":7704,"componentType":5126,"count":54,"max":[-0.001,0.002,0.02075312662229416],"min":[-0.007,0.0,0.014796873377705836],"type":"VEC3"},{"bufferView":0,"byteOffset":8352,"componentType":5126,"count":54,"max":[-0.016274999999999999,0.002,0.005489063311147081],"min":[-0.019275,0.0,0.002510936688852919],"type":"VEC3"},{"bufferView":0,"byteOffset":9000,"componentType":5126,"count":16,"max":[-0.001999999999999997,0.004,0.014078157811212269],"min":[-0.014078157811212269,0.0,0.002],"type":"VEC3"},{"bufferView":0,"byteOffset":9192,"componentType":5126,"count":4,"max":[-0.001999999999999996,0.004,0.002],"min":[-0.014078157811212269,0.0,0.002],"type":"VEC3"},{"bufferView":0,"byteOffset":9240,"componentType":5126,"count":4,"max":[-0.001999999999999996,0.004,0.014078157811212269],"min":[-0.001999999999999997,0.0,0.002],"type":"VEC3"},{"bufferView":0,"byteOffset":9288,"componentType":5126,"count":54,"max":[0.007,0.002,0.02075312662229416],"min":[0.001,0.0,0.014796873377705836],"type":"VEC3"},{"bufferView":0,"byteOffset":9936,"componentType":5126,"count":16,"max":[0.014078157811212269,0.004,0.014078157811212269],"min":[0.002000000000000004,0.0,0.001999999999999998],"type":"VEC3"},{"bufferView":0,"byteOffset":10128,"componentType":5126,"count":4,"max":[0.002000000000000004,0.004,0.014078157811212269],"min":[0.002000000000000004,0.0,0.001999999999999998],"type":"VEC3"},{"bufferView":0,"byteOffset":10176,"componentType":5126,"count":4,"max":[0.014078157811212269,0.004,0.001999999999999998],"min":[0.002000000000000004,0.0,0.001999999999999998],"type":"VEC3"},{"bufferView":0,"byteOffset":10224,"componentType":5126,"count":54,"max":[0.019275,0.002,0.005489063311147081],"min":[0.016274999999999999,0.0,0.002510936688852919],"type":"VEC3"},{"bufferView":0,"byteOffset":10872,"componentType":5126,"count":54,"max":[-0.016274999999999999,0.002,-0.002510936688852919],"min":[-0.019275,0.0,-0.005489063311147081],"type":"VEC3"},{"bufferView":0,"byteOffset":11520,"componentType":5126,"count":16,"max":[-0.002,0.004,-0.002000000000000001],"min":[-0.014078157811212269,0.0,-0.014078157811212269],"type":"VEC3"},{"bufferView":0,"byteOffset":11712,"componentType":5126,"count":4,"max":[-0.002,0.004,-0.002],"min":[-0.002,0.0,-0.014078157811212269],"type":"VEC3"},{"bufferView":0,"byteOffset":11760,"componentType":5126,"count":4,"max":[-0.002,0.004,-0.002],"min":[-0.014078157811212269,0.0,-0.002000000000000001],"type":"VEC3"},{"bufferView":0,"byteOffset":11808,"componentType":5126,"count":54,"max":[-0.001,0.002,-0.014796873377705836],"min":[-0.007,0.0,-0.02075312662229416],"type":"VEC3"},{"bufferView":0,"byteOffset":12456,"componentType":5126,"count":16,"max":[0.014078157811212269,0.004,-0.002],"min":[0.0019999999999999989,0.0,-0.014078157811212269],"type":"VEC3"},{"bufferView":0,"byteOffset":12648,"componentType":5126,"count":4,"max":[0.014078157811212269,0.004,-0.002],"min":[0.0019999999999999989,0.0,-0.002],"type":"VEC3"},{"bufferView":0,"byteOffset":12696,"componentType":5126,"count":4,"max":[0.0019999999999999989,0.004,-0.002],"min":[0.0019999999999999989,0.0,-0.014078157811212269],"type":"VEC3"},{"bufferView":0,"byteOffset":12744,"componentType":5126,"count":54,"max":[0.019275,0.002,-0.002510936688852919],"min":[0.016274999999999999,0.0,-0.005489063311147081],"type":"VEC3"},{"bufferView":0,"byteOffset":13392,"componentType":5126,"count":54,"max":[0.007,0.002,-0.014796873377705836],"min":[0.001,0.0,-0.02075312662229416],"type":"VEC3"},{"bufferView":0,"byteOffset":14040,"componentType":5126,"count":54,"max":[-0.0025,0.004,0.01926406331114708],"min":[-0.0055,0.002,0.016285936688852918],"type":"VEC3"},{"bufferView":0,"byteOffset":14688,"componentType":5126,"count":54,"max":[-0.014774999999999999,0.004,0.006978126622294163],"min":[-0.020775,0.002,0.001021873377705838],"type":"VEC3"},{"bufferView":0,"byteOffset":15336,"componentType":5126,"count":54,"max":[0.0055,0.004,0.01926406331114708],"min":[0.0025,0.002,0.016285936688852918],"type":"VEC3"},{"bufferView":0,"byteOffset":15984,"componentType":5126,"count":54,"max":[0.020775,0.004,0.006978126622294163],"min":[0.014774999999999999,0.002,0.001021873377705838],"type":"VEC3"},{"bufferView":0,"byteOffset":16632,"componentType":5126,"count":54,"max":[-0.014774999999999999,0.004,-0.001021873377705837],"min":[-0.020775,0.002,-0.006978126622294163],"type":"VEC3"},{"bufferView":0,"byteOffset":17280,"componentType":5126,"count":54,"max":[-0.0025,0.004,-0.016285936688852918],"min":[-0.0055,0.002,-0.01926406331114708],"type":"VEC3"},{"bufferView":0,"byteOffset":17928,"componentType":5126,"count":54,"max":[0.020775,0.004,-0.001021873377705837],"min":[0.014774999999999999,0.002,-0.006978126622294163],"type":"VEC3"},{"bufferView":0,"byteOffset":18576,"componentType":5126,"count":54,"max":[0.0055,0.004,-0.016285936688852918],"min":[0.0025,0.002,-0.01926406331114708],"type":"VEC3"},{"bufferView":0,"byteOffset":19224,"componentType":5126,"count":52,"max":[-0.001,0.002,0.02075312662229416],"min":[-0.007,0.002,0.014796873377705836],"type":"VEC3"},{"bufferView":0,"byteOffset":19848,"componentType":5126,"count":52,"max":[-0.014774999999999999,0.002,0.006978126622294163],"min":[-0.020775,0.002,0.001021873377705838],"type":"VEC3"},{"bufferView":0,"byteOffset":20472,"componentType":5126,"count":52,"max":[0.007,0.002,0.02075312662229416],"min":[0.001,0.002,0.014796873377705836],"type":"VEC3"},{"bufferView":0,"byteOffset":21096,"componentType":5126,"count":52,"max":[0.020775,0.002,0.006978126622294163],"min":[0.014774999999999999,0.002,0.001021873377705838],"type":"VEC3"},{"bufferView":0,"byteOffset":21720,"componentType":5126,"count":52,"max":[-0.014774999999999999,0.002,-0.001021873377705837],"min":[-0.020775,0.002,-0.006978126622294163],"type":"VEC3"},{"bufferView":0,"byteOffset":22344,"componentType":5126,"count":52,"max":[-0.001,0.002,-0.014796873377705836],"min":[-0.007,0.002,-0.02075312662229416],"type":"VEC3"},{"bufferView":0,"byteOffset":22968,"componentType":5126,"count":52,"max":[0.020775,0.002,-0.001021873377705837],"min":[0.014774999999999999,0.002,-0.006978126622294163],"type":"VEC3"},{"bufferView":0,"byteOffset":23592,"componentType":5126,"count":52,"max":[0.007,0.002,-0.014796873377705836],"min":[0.001,0.002,-0.02075312662229416],"type":"VEC3"},{"bufferView":1,"byteOffset":0,"componentType":5126,"count":78,"type":"VEC3"},{"bufferView":1,"byteOffset":936,"componentType":5126,"count":282,"type":"VEC3"},{"bufferView":1,"byteOffset":4320,"componentType":5126,"count":282,"type":"VEC3"},{"bufferView":1,"byteOffset":7704,"componentType":5126,"count":54,"type":"VEC3"},{"bufferView":1,"byteOffset":8352,"componentType":5126,"count":54,"type":"VEC3"},{"bufferView":1,"byteOffset":9000,"componentType":5126,"count":16,"type":"VEC3"},{"bufferView":1,"byteOffset":9192,"componentType":5126,"count":4,"type":"VEC3"},{"bufferView":1,"byteOffset":9240,"componentType":5126,"count":4,"type":"VEC3"},{"bufferView":1,"byteOffset":9288,"componentType":5126,"count":54,"type":"VEC3"},{"bufferView":1,"byteOffset":9936,"componentType":5126,"count":16,"type":"VEC3"},{"bufferView":1,"byteOffset":10128,"componentType":5126,"count":4,"type":"VEC3"},{"bufferView":1,"byteOffset":10176,"componentType":5126,"count":4,"type":"VEC3"},{"bufferView":1,"byteOffset":10224,"componentType":5126,"count":54,"type":"VEC3"},{"bufferView":1,"byteOffset":10872,"componentType":5126,"count":54,"type":"VEC3"},{"bufferView":1,"byteOffset":11520,"componentType":5126,"count":16,"type":"VEC3"},{"bufferView":1,"byteOffset":11712,"componentType":5126,"count":4,"type":"VEC3"},{"bufferView":1,"byteOffset":11760,"componentType":5126,"count":4,"type":"VEC3"},{"bufferView":1,"byteOffset":11808,"componentType":5126,"count":54,"type":"VEC3"},{"bufferView":1,"byteOffset":12456,"componentType":5126,"count":16,"type":"VEC3"},{"bufferView":1,"byteOffset":12648,"componentType":5126,"count":4,"type":"VEC3"},{"bufferView":1,"byteOffset":12696,"componentType":5126,"count":4,"type":"VEC3"},{"bufferView":1,"byteOffset":12744,"componentType":5126,"count":54,"type":"VEC3"},{"bufferView":1,"byteOffset":13392,"componentType":5126,"count":54,"type":"VEC3"},{"bufferView":1,"byteOffset":14040,"componentType":5126,"count":54,"type":"VEC3"},{"bufferView":1,"byteOffset":14688,"componentType":5126,"count":54,"type":"VEC3"},{"bufferView":1,"byteOffset":15336,"componentType":5126,"count":54,"type":"VEC3"},{"bufferView":1,"byteOffset":15984,"componentType":5126,"count":54,"type":"VEC3"},{"bufferView":1,"byteOffset":16632,"componentType":5126,"count":54,"type":"VEC3"},{"bufferView":1,"byteOffset":17280,"componentType":5126,"count":54,"type":"VEC3"},{"bufferView":1,"byteOffset":17928,"componentType":5126,"count":54,"type":"VEC3"},{"bufferView":1,"byteOffset":18576,"componentType":5126,"count":54,"type":"VEC3"},{"bufferView":1,"byteOffset":19224,"componentType":5126,"count":52,"type":"VEC3"},{"bufferView":1,"byteOffset":19848,"componentType":5126,"count":52,"type":"VEC3"},{"bufferView":1,"byteOffset":20472,"componentType":5126,"count":52,"type":"VEC3"},{"bufferView":1,"byteOffset":21096,"componentType":5126,"count":52,"type":"VEC3"},{"bufferView":1,"byteOffset":21720,"componentType":5126,"count":52,"type":"VEC3"},{"bufferView":1,"byteOffset":22344,"componentType":5126,"count":52,"type":"VEC3"},{"bufferView":1,"byteOffset":22968,"componentType":5126,"count":52,"type":"VEC3"},{"bufferView":1,"byteOffset":23592,"componentType":5126,"count":52,"type":"VEC3"},{"bufferView":2,"byteOffset":0,"componentType":5123,"count":228,"type":"SCALAR"},{"bufferView":2,"byteOffset":456,"componentType":5123,"count":912,"type":"SCALAR"},{"bufferView":2,"byteOffset":2280,"componentType":5123,"count":912,"type":"SCALAR"},{"bufferView":2,"byteOffset":4104,"componentType":5123,"count":156,"type":"SCALAR"},{"bufferView":2,"byteOffset":4416,"componentType":5123,"count":156,"type":"SCALAR"},{"bufferView":2,"byteOffset":4728,"componentType":5123,"count":42,"type":"SCALAR"},{"bufferView":2,"byteOffset":4812,"componentType":5123,"count":6,"type":"SCALAR"},{"bufferView":2,"byteOffset":4824,"componentType":5123,"count":6,"type":"SCALAR"},{"bufferView":2,"byteOffset":4836,"componentType":5123,"count":156,"type":"SCALAR"},{"bufferView":2,"byteOffset":5148,"componentType":5123,"count":42,"type":"SCALAR"},{"bufferView":2,"byteOffset":5232,"componentType":5123,"count":6,"type":"SCALAR"},{"bufferView":2,"byteOffset":5244,"componentType":5123,"count":6,"type":"SCALAR"},{"bufferView":2,"byteOffset":5256,"componentType":5123,"count":156,"type":"SCALAR"},{"bufferView":2,"byteOffset":5568,"componentType":5123,"count":156,"type":"SCALAR"},{"bufferView":2,"byteOffset":5880,"componentType":5123,"count":42,"type":"SCALAR"},{"bufferView":2,"byteOffset":5964,"componentType":5123,"count":6,"type":"SCALAR"},{"bufferView":2,"byteOffset":5976,"componentType":5123,"count":6,"type":"SCALAR"},{"bufferView":2,"byteOffset":5988,"componentType":5123,"count":156,"type":"SCALAR"},{"bufferView":2,"byteOffset":6300,"componentType":5123,"count":42,"type":"SCALAR"},{"bufferView":2,"byteOffset":6384,"componentType":5123,"count":6,"type":"SCALAR"},{"bufferView":2,"byteOffset":6396,"componentType":5123,"count":6,"type":"SCALAR"},{"bufferView":2,"byteOffset":6408,"componentType":5123,"count":156,"type":"SCALAR"},{"bufferView":2,"byteOffset":6720,"componentType":5123,"count":156,"type":"SCALAR"},{"bufferView":2,"byteOffset":7032,"componentType":5123,"count":156,"type":"SCALAR"},{"bufferView":2,"byteOffset":7344,"componentType":5123,"count":156,"type":"SCALAR"},{"bufferView":2,"byteOffset":7656,"componentType":5123,"count":156,"type":"SCALAR"},{"bufferView":2,"byteOffset":7968,"componentType":5123,"count":156,"type":"SCALAR"},{"bufferView":2,"byteOffset":8280,"componentType":5123,"count":156,"type":"SCALAR"},{"bufferView":2,"byteOffset":8592,"componentType":5123,"count":156,"type":"SCALAR"},{"bufferView":2,"byteOffset":8904,"componentType":5123,"count":156,"type":"SCALAR"},{"bufferView":2,"byteOffset":9216,"componentType":5123,"count":156,"type":"SCALAR"},{"bufferView":2,"byteOffset":9528,"componentType":5123,"count":156,"type":"SCALAR"},{"bufferView":2,"byteOffset":9840,"componentType":5123,"count":156,"type":"SCALAR"},{"bufferView":2,"byteOffset":10152,"componentType":5123,"count":156,"type":"SCALAR"},{"bufferView":2,"byteOffset":10464,"componentType":5123,"count":156,"type":"SCALAR"},{"bufferView":2,"byteOffset":10776,"componentType":5123,"count":156,"type":"SCALAR"},{"bufferView":2,"byteOffset":11088,"componentType":5123,"count":156,"type":"SCALAR"},{"bufferView":2,"byteOffset":11400,"componentType":5123,"count":156,"type":"SCALAR"},{"bufferView":2,"byteOffset":11712,"componentType":5123,"count":156,"type":"SCALAR"}],"asset":{"generator":"Open CASCADE Technology 7.6 [dev.opencascade.org]","version":"2.0"},"bufferViews":[{"buffer":0,"byteLength":24216,"byteOffset":0,"byteStride":12,"target":34962},{"buffer":0,"byteLength":24216,"byteOffset":24216,"byteStride":12,"target":34962},{"buffer":0,"byteLength":12024,"byteOffset":48432,"target":34963}],"buffers":[{"byteLength":60456,"uri":"MechaFerris-CoxaFemurConnector.bin"}],"materials":[{"name":"mat_0","pbrMetallicRoughness":{"baseColorFactor":[0.6038273572921753,0.6038273572921753,0.6038273572921753,1.0]},"doubleSided":true}],"meshes":[{"name":"Body024","primitives":[{"attributes":{"NORMAL":39,"POSITION":0},"indices":78,"material":0,"mode":4},{"attributes":{"NORMAL":40,"POSITION":1},"indices":79,"material":0,"mode":4},{"attributes":{"NORMAL":41,"POSITION":2},"indices":80,"material":0,"mode":4},{"attributes":{"NORMAL":42,"POSITION":3},"indices":81,"material":0,"mode":4},{"attributes":{"NORMAL":43,"POSITION":4},"indices":82,"material":0,"mode":4},{"attributes":{"NORMAL":44,"POSITION":5},"indices":83,"material":0,"mode":4},{"attributes":{"NORMAL":45,"POSITION":6},"indices":84,"material":0,"mode":4},{"attributes":{"NORMAL":46,"POSITION":7},"indices":85,"material":0,"mode":4},{"attributes":{"NORMAL":47,"POSITION":8},"indices":86,"material":0,"mode":4},{"attributes":{"NORMAL":48,"POSITION":9},"indices":87,"material":0,"mode":4},{"attributes":{"NORMAL":49,"POSITION":10},"indices":88,"material":0,"mode":4},{"attributes":{"NORMAL":50,"POSITION":11},"indices":89,"material":0,"mode":4},{"attributes":{"NORMAL":51,"POSITION":12},"indices":90,"material":0,"mode":4},{"attributes":{"NORMAL":52,"POSITION":13},"indices":91,"material":0,"mode":4},{"attributes":{"NORMAL":53,"POSITION":14},"indices":92,"material":0,"mode":4},{"attributes":{"NORMAL":54,"POSITION":15},"indices":93,"material":0,"mode":4},{"attributes":{"NORMAL":55,"POSITION":16},"indices":94,"material":0,"mode":4},{"attributes":{"NORMAL":56,"POSITION":17},"indices":95,"material":0,"mode":4},{"attributes":{"NORMAL":57,"POSITION":18},"indices":96,"material":0,"mode":4},{"attributes":{"NORMAL":58,"POSITION":19},"indices":97,"material":0,"mode":4},{"attributes":{"NORMAL":59,"POSITION":20},"indices":98,"material":0,"mode":4},{"attributes":{"NORMAL":60,"POSITION":21},"indices":99,"material":0,"mode":4},{"attributes":{"NORMAL":61,"POSITION":22},"indices":100,"material":0,"mode":4},{"attributes":{"NORMAL":62,"POSITION":23},"indices":101,"material":0,"mode":4},{"attributes":{"NORMAL":63,"POSITION":24},"indices":102,"material":0,"mode":4},{"attributes":{"NORMAL":64,"POSITION":25},"indices":103,"material":0,"mode":4},{"attributes":{"NORMAL":65,"POSITION":26},"indices":104,"material":0,"mode":4},{"attributes":{"NORMAL":66,"POSITION":27},"indices":105,"material":0,"mode":4},{"attributes":{"NORMAL":67,"POSITION":28},"indices":106,"material":0,"mode":4},{"attributes":{"NORMAL":68,"POSITION":29},"indices":107,"material":0,"mode":4},{"attributes":{"NORMAL":69,"POSITION":30},"indices":108,"material":0,"mode":4},{"attributes":{"NORMAL":70,"POSITION":31},"indices":109,"material":0,"mode":4},{"attributes":{"NORMAL":71,"POSITION":32},"indices":110,"material":0,"mode":4},{"attributes":{"NORMAL":72,"POSITION":33},"indices":111,"material":0,"mode":4},{"attributes":{"NORMAL":73,"POSITION":34},"indices":112,"material":0,"mode":4},{"attributes":{"NORMAL":74,"POSITION":35},"indices":113,"material":0,"mode":4},{"attributes":{"NORMAL":75,"POSITION":36},"indices":114,"material":0,"mode":4},{"attributes":{"NORMAL":76,"POSITION":37},"indices":115,"material":0,"mode":4},{"attributes":{"NORMAL":77,"POSITION":38},"indices":116,"material":0,"mode":4}]}],"nodes":[{"children":[1],"name":"CoxaFemurConnector"},{"mesh":0,"name":"Body024"}],"scene":0,"scenes":[{"nodes":[0]}]}