{"accessors":[{"bufferView":0,"byteOffset":0,"componentType":5126,"count":118,"max":[0.0023,0.001,0.002296626851857585],"min":[-0.0023,0.0,-0.002296626851857585],"type":"VEC3"},{"bufferView":0,"byteOffset":1416,"componentType":5126,"count":106,"max":[0.0023,0.0,0.002296626851857585],"min":[-0.0023,0.0,-0.002296626851857585],"type":"VEC3"},{"bufferView":0,"byteOffset":2688,"componentType":5126,"count":106,"max":[0.0023,0.001,0.002296626851857585],"min":[-0.0023,0.001,-0.002296626851857585],"type":"VEC3"},{"bufferView":0,"byteOffset":3960,"componentType":5126,"count":98,"max":[0.0015500000000000002,0.001,0.0015500000000000002],"min":[-0.0015500000000000002,0.0,-0.0015500000000000002],"type":"VEC3"},{"bufferView":1,"byteOffset":0,"componentType":5126,"count":118,"type":"VEC3"},{"bufferView":1,"byteOffset":1416,"componentType":5126,"count":106,"type":"VEC3"},{"bufferView":1,"byteOffset":2688,"componentType":5126,"count":106,"type":"VEC3"},{"bufferView":1,"byteOffset":3960,"componentType":5126,"count":98,"type":"VEC3"},{"bufferView":2,"byteOffset":0,"componentType":5123,"count":348,"type":"SCALAR"},{"bufferView":2,"byteOffset":696,"componentType":5123,"count":318,"type":"SCALAR"},{"bufferView":2,"byteOffset":1332,"componentType":5123,"count":318,"type":"SCALAR"},{"bufferView":2,"byteOffset":1968,"componentType":5123,"count":288,"type":"SCALAR"}],"asset":{"generator":"Open CASCADE Technology 7.6 [dev.opencascade.org]","version":"2.0"},"bufferViews":[{"buffer":0,"byteLength":5136,"byteOffset":0,"byteStride":12,"target":34962},{"buffer":0,"byteLength":5136,"byteOffset":5136,"byteStride":12,"target":34962},{"buffer":0,"byteLength":2544,"byteOffset":10272,"target":34963}],"buffers":[{"byteLength":12816,"uri":"MechaFerris-BearingSpacer.bin"}],"materials":[{"name":"mat_0","pbrMetallicRoughness":{"baseColorFactor":[0.6375969052314758,0.9734452962875366,0.017641955986618997,1.0]},"doubleSided":true}],"meshes":[{"name":"Body004","primitives":[{"attributes":{"NORMAL":4,"POSITION":0},"indices":8,"material":0,"mode":4},{"attributes":{"NORMAL":5,"POSITION":1},"indices":9,"material":0,"mode":4},{"attributes":{"NORMAL":6,"POSITION":2},"indices":10,"material":0,"mode":4},{"attributes":{"NORMAL":7,"POSITION":3},"indices":11,"material":0,"mode":4}]}],"nodes":[{"children":[1,2,3],"name":"BearingSpacer"},{"mesh":0,"name":"Body004"},{"name":"BearingSpacerBottomLCS"},{"translation":[0.0,0.001,0.0],"name":"BearingSpacerTopLCS"}],"scene":0,"scenes":[{"nodes":[0]}]}